<svg width="610" height="349" viewBox="0 0 610 349" fill="none" xmlns="http://www.w3.org/2000/svg">
<path opacity="0.2" d="M182.195 49.6679L181.762 49.5849L44.281 268.324L528.93 296.756L529.476 296.788L547.234 119.221L547.269 118.872L182.195 49.6679ZM321.42 190.337L46.1885 267.215L182.169 50.8643L321.42 190.337ZM322.227 190.996L526.952 295.805L47.6589 267.689L322.227 190.996ZM322.48 190.026L183.436 50.7572L544.959 119.288L322.48 190.026ZM528.499 295.598L323.446 190.619L546.076 119.833L528.499 295.598Z" fill="#367CFF"/>
<path d="M609.177 122.919C608.739 131.34 605.624 139.555 600.1 146.863C594.576 154.17 586.805 160.352 577.453 164.881C568.101 169.409 557.446 172.15 546.397 172.869C535.348 173.587 524.234 172.262 514.006 169.006C509.209 167.478 504.659 165.536 500.446 163.217C492.395 158.799 485.693 153.112 480.8 146.545V146.539C475.583 139.515 472.581 131.667 472.028 123.612C471.476 115.557 473.389 107.514 477.617 100.116C481.844 92.7172 488.272 86.1645 496.394 80.9725C504.517 75.7805 514.113 72.0905 524.429 70.1925C534.744 68.2945 545.498 68.2402 555.846 70.0338C566.194 71.8274 575.854 75.4201 584.066 80.5296C592.279 85.6391 598.821 92.1262 603.178 99.4813C607.534 106.836 609.588 114.859 609.176 122.919L609.177 122.919Z" fill="white"/>
<path opacity="0.09" d="M609.177 122.919C608.739 131.34 605.624 139.555 600.1 146.863C594.576 154.17 586.805 160.352 577.453 164.881C568.101 169.409 557.446 172.15 546.397 172.869C535.348 173.587 524.234 172.262 514.006 169.006C509.209 167.478 504.659 165.536 500.446 163.217C492.395 158.799 485.693 153.112 480.8 146.545V146.539C475.583 139.515 472.581 131.667 472.028 123.612C471.476 115.557 473.389 107.514 477.617 100.116C481.844 92.7172 488.272 86.1645 496.394 80.9725C504.517 75.7805 514.113 72.0905 524.429 70.1925C534.744 68.2945 545.498 68.2402 555.846 70.0338C566.194 71.8274 575.854 75.4201 584.066 80.5296C592.279 85.6391 598.821 92.1262 603.178 99.4813C607.534 106.836 609.588 114.859 609.176 122.919L609.177 122.919Z" fill="#367CFF"/>
<path d="M556.813 81.1672C556.813 81.1672 573.224 81.3199 567.566 98.5079L566.025 98.5652L562.896 98.681" fill="#0C0C0C"/>
<path d="M538.488 116.541C538.564 116.536 538.867 127.257 555.264 126.806C566.616 126.496 571.118 117.488 571.378 117.495C570.168 117.263 568.127 116.914 567.596 116.679C565.851 115.899 563.684 115.077 563.244 112.429C562.991 110.903 563.948 103.164 563.854 101.625L546.328 104.06C546.406 107.307 547.722 114.867 541.698 116.021C540.696 116.211 539.618 116.382 538.488 116.541Z" fill="#E98862"/>
<path opacity="0.52" d="M545.624 113.062C545.931 112.404 546.141 111.722 546.252 111.028C546.524 109.447 546.567 107.847 546.381 106.258C549.931 106 553.315 104.991 556.147 103.344C556.424 104.257 557.996 108.268 557.458 109.114C556.448 110.714 551.95 113.249 545.624 113.062Z" fill="#0C0C0C"/>
<path d="M549.602 111.168C556.472 110.795 564.76 107.616 565.048 100.541L565.308 94.1587C565.596 87.0851 560.938 81.2357 552.177 81.0298C543.413 80.8222 536.629 86.4039 536.341 93.4775L536.226 96.3032C536.209 97.2743 536.278 98.2452 536.435 99.2091C536.824 101.758 537.428 105.633 539.636 108.28C541.721 110.778 545.213 111.406 549.602 111.168Z" fill="#E98862"/>
<path d="M564.416 102.685C567.079 102.747 569.326 100.633 569.409 98.6088C569.491 96.5851 567.377 95.4178 564.714 95.3551L563.287 96.6789L562.126 102.631L564.416 102.685Z" fill="#E98862"/>
<path d="M536.792 101.345C537.273 101.779 537.889 102.114 538.584 102.32C539.279 102.527 540.031 102.598 540.771 102.527C542.356 102.375 543.406 102.869 544.728 102.77C545.838 102.687 546.031 102.297 547.925 102.212C555.237 101.883 560.725 101.533 561.081 94.5589L565.734 91.4177C565.734 91.4177 567.814 110.742 554.06 113.311C545.609 114.889 537.683 114.312 536.663 108.28C535.835 103.379 536.792 101.345 536.792 101.345Z" fill="#0C0C0C"/>
<path d="M540.256 97.3095C540.853 97.3095 541.336 96.942 541.336 96.4888C541.336 96.0355 540.853 95.6681 540.256 95.6681C539.66 95.6681 539.176 96.0355 539.176 96.4888C539.176 96.942 539.66 97.3095 540.256 97.3095Z" fill="#0C0C0C"/>
<path d="M549.904 97.1568C550.5 97.1568 550.984 96.7893 550.984 96.3361C550.984 95.8828 550.5 95.5154 549.904 95.5154C549.307 95.5154 548.824 95.8828 548.824 96.3361C548.824 96.7893 549.307 97.1568 549.904 97.1568Z" fill="#0C0C0C"/>
<path d="M561.844 99.3946C561.844 99.3946 561.184 89.3712 557.204 88.6974C554.553 88.2487 548.034 91.0275 542.078 90.0785C539.473 89.6634 536.979 90.12 536.704 91.0557C536.595 91.426 534.533 88.142 538.725 84.1461C542.062 80.9646 552.914 80.0696 557.741 81.1946C571.108 84.3105 565.254 95.8038 565.254 95.8038L564.571 99.2468L561.844 99.3946Z" fill="#0C0C0C"/>
<path d="M567.918 91.3123C571.853 91.3123 575.042 88.8884 575.042 85.8983C575.042 82.9082 571.853 80.4843 567.918 80.4843C563.984 80.4843 560.794 82.9082 560.794 85.8983C560.794 88.8884 563.984 91.3123 567.918 91.3123Z" fill="#0C0C0C"/>
<g opacity="0.52">
<path d="M544.859 102.448H544.842C543.984 102.429 542.548 102.325 542.564 101.838C542.579 101.433 544.199 97.1003 544.383 96.6071C544.399 96.5647 544.436 96.5288 544.487 96.5074C544.538 96.4859 544.597 96.4807 544.653 96.4927C544.709 96.5048 544.756 96.5332 544.784 96.5717C544.813 96.6102 544.82 96.6556 544.804 96.698C544.085 98.6171 543.012 101.572 543.001 101.845C543.081 101.963 543.965 102.095 544.854 102.114C544.912 102.114 544.968 102.131 545.009 102.161C545.051 102.192 545.074 102.234 545.075 102.278C545.076 102.322 545.053 102.365 545.013 102.396C544.972 102.428 544.917 102.446 544.859 102.446V102.448Z" fill="#0C0C0C"/>
</g>
<path d="M542.246 93.7004C541.36 93.5009 540.419 93.4866 539.522 93.6589C539.081 93.7413 538.659 93.8737 538.269 94.0516C537.883 94.226 537.528 94.4368 537.212 94.6789C537.157 94.7162 537.124 94.7685 537.12 94.8244C537.116 94.8803 537.141 94.9351 537.191 94.9767C537.24 95.0184 537.309 95.0435 537.382 95.0466C537.456 95.0497 537.528 95.0304 537.583 94.9931L537.599 94.9823C537.894 94.7802 538.221 94.6072 538.573 94.4672C538.919 94.3278 539.291 94.229 539.676 94.1741C540.436 94.0612 541.221 94.1029 541.953 94.2949L541.981 94.3028C542.032 94.318 542.088 94.3252 542.143 94.3241C542.198 94.3229 542.253 94.3134 542.303 94.296C542.354 94.2787 542.399 94.2539 542.437 94.223C542.475 94.1922 542.504 94.156 542.523 94.1164C542.542 94.0769 542.551 94.0349 542.548 93.9928C542.546 93.9507 542.532 93.9095 542.509 93.8714C542.485 93.8333 542.452 93.7992 542.41 93.7711C542.369 93.743 542.321 93.7213 542.269 93.7075L542.246 93.7004Z" fill="#0C0C0C"/>
<path d="M548.609 94.2957C549.312 94.0501 550.089 93.9505 550.86 94.0072C551.25 94.0331 551.633 94.1041 551.995 94.2176C552.363 94.3309 552.71 94.4789 553.029 94.6581L553.047 94.6672C553.106 94.6967 553.178 94.7077 553.248 94.698C553.318 94.6884 553.38 94.6588 553.422 94.6153C553.464 94.5718 553.483 94.5178 553.474 94.4643C553.465 94.4108 553.429 94.3619 553.375 94.3276C553.029 94.1101 552.648 93.9265 552.242 93.7814C551.832 93.6331 551.395 93.5325 550.945 93.4829C550.031 93.3782 549.096 93.4623 548.239 93.7266C548.138 93.7596 548.059 93.8214 548.018 93.8987C547.976 93.9759 547.977 94.0624 548.019 94.1393C548.061 94.2163 548.141 94.2776 548.242 94.31C548.343 94.3423 548.457 94.3432 548.559 94.3123L548.579 94.3056L548.609 94.2957Z" fill="#0C0C0C"/>
<path d="M592.358 143.311C591.748 146.816 591.152 151.63 590.619 156.607C588.539 158.29 586.314 159.866 583.961 161.326C582.464 162.25 580.92 163.128 579.327 163.96C570.717 168.427 560.883 171.348 550.568 172.502C540.254 173.656 529.73 173.013 519.791 170.621C519.655 165.997 519.471 159.761 519.287 154.047C519.077 147.456 518.864 141.555 518.75 139.616C518.279 131.92 515.595 126.786 517.624 122.587C518.231 121.344 519.206 120.225 520.475 119.315C525.203 115.798 536.946 115.879 541.656 116.018C541.738 116.02 540.283 124.281 555.78 124.182C567.171 124.111 568.025 116.795 568.025 116.795C568.025 116.795 573.638 117.239 577.366 117.731C583.463 118.542 587.427 120.242 590.512 122.78C593.39 125.146 595.087 127.659 592.358 143.311Z" fill="#367CFF"/>
<path d="M501.25 116.832L501.719 108.017C501.73 107.823 501.687 107.63 501.594 107.449C501.501 107.268 501.359 107.105 501.178 106.968C500.997 106.831 500.78 106.725 500.542 106.655C500.303 106.586 500.049 106.555 499.794 106.564C499.324 106.593 498.885 106.753 498.562 107.014C498.239 107.275 498.055 107.618 498.046 107.976L497.945 109.866L494.669 103.812C494.321 103.134 493.322 102.472 492.347 102.819C491.961 102.934 491.637 103.146 491.428 103.418C491.22 103.691 491.14 104.01 491.2 104.322C491.191 104.323 491.182 104.325 491.173 104.327C491.167 104.329 491.161 104.332 491.155 104.336L490.618 103.291C490.518 103.097 490.363 102.923 490.163 102.78C489.964 102.638 489.725 102.532 489.465 102.468C489.204 102.405 488.928 102.387 488.657 102.415C488.386 102.443 488.126 102.517 487.898 102.631C487.542 102.816 487.281 103.088 487.158 103.402C487.034 103.716 487.057 104.052 487.221 104.355L487.45 104.799C487.436 104.811 487.425 104.823 487.416 104.837C487.17 104.564 486.804 104.367 486.384 104.28C485.964 104.193 485.517 104.222 485.122 104.363C484.697 104.527 484.368 104.806 484.202 105.146C484.035 105.486 484.044 105.861 484.225 106.196L484.793 107.301C484.771 107.29 484.745 107.283 484.718 107.281C484.692 107.278 484.665 107.281 484.639 107.288C484.61 107.298 484.585 107.314 484.567 107.335C484.259 107.137 483.874 107.023 483.471 107.008C483.069 106.994 482.671 107.08 482.34 107.254C481.996 107.442 481.747 107.712 481.631 108.022C481.515 108.331 481.54 108.661 481.702 108.959L486.496 118.282C487.167 119.586 488.335 120.708 489.85 121.505C491.366 122.301 493.159 122.736 495.002 122.753C496.591 122.767 498.124 122.31 499.277 121.479C500.429 120.647 501.11 119.507 501.174 118.301L501.25 116.832Z" fill="#E98862"/>
<g opacity="0.2">
<path d="M494.402 110.327C494.361 110.339 494.315 110.338 494.274 110.325C494.233 110.312 494.201 110.287 494.184 110.255L491.079 104.495C491.07 104.479 491.064 104.462 491.063 104.444C491.063 104.427 491.067 104.409 491.075 104.393C491.083 104.377 491.096 104.362 491.112 104.349C491.128 104.337 491.148 104.327 491.169 104.32C491.19 104.314 491.213 104.31 491.236 104.311C491.259 104.311 491.282 104.315 491.303 104.322C491.324 104.329 491.343 104.34 491.358 104.353C491.374 104.366 491.386 104.381 491.394 104.397L494.498 110.158C494.506 110.174 494.511 110.19 494.51 110.207C494.51 110.224 494.506 110.241 494.497 110.257C494.489 110.272 494.476 110.286 494.46 110.298C494.444 110.31 494.426 110.32 494.405 110.326L494.402 110.327Z" fill="#0C0C0C"/>
</g>
<g opacity="0.2">
<path d="M491.097 111.438C491.055 111.45 491.009 111.449 490.968 111.436C490.927 111.422 490.895 111.397 490.878 111.366L487.414 104.937C487.398 104.905 487.399 104.87 487.416 104.839C487.433 104.808 487.466 104.784 487.507 104.771C487.548 104.76 487.594 104.761 487.634 104.774C487.675 104.787 487.707 104.811 487.726 104.841L491.19 111.27C491.207 111.302 491.206 111.337 491.189 111.369C491.172 111.4 491.139 111.425 491.097 111.438V111.438Z" fill="#0C0C0C"/>
</g>
<g opacity="0.2">
<path d="M487.526 112.656C487.485 112.668 487.438 112.668 487.398 112.654C487.357 112.641 487.324 112.616 487.308 112.584L484.544 107.456C484.527 107.425 484.527 107.389 484.545 107.358C484.562 107.326 484.595 107.301 484.637 107.288C484.678 107.275 484.725 107.275 484.767 107.289C484.808 107.302 484.841 107.327 484.858 107.359L487.623 112.485C487.64 112.517 487.64 112.552 487.622 112.584C487.605 112.616 487.572 112.641 487.53 112.653L487.526 112.656Z" fill="#0C0C0C"/>
</g>
<path d="M539.647 130.652L511.417 163.636C510.39 164.835 509.015 165.839 507.398 166.571C504.992 165.562 502.67 164.442 500.446 163.217C495.704 160.617 491.42 157.567 487.697 154.142L481.767 119.204L505.497 116.314L508.203 133.131L519.044 120.465L539.647 130.652Z" fill="#367CFF"/>
<path d="M542.956 104.247C545.546 104.378 548.119 103.849 550.268 102.744C550.343 102.706 550.43 102.685 550.52 102.683C550.61 102.682 550.698 102.699 550.775 102.735C550.852 102.77 550.915 102.821 550.955 102.882C550.995 102.943 551.011 103.011 551.002 103.079C550.829 104.242 550.074 106.379 546.865 106.652C544.793 106.827 543.291 105.618 542.535 104.814C542.482 104.758 542.452 104.693 542.447 104.624C542.443 104.556 542.464 104.488 542.508 104.429C542.552 104.369 542.618 104.32 542.697 104.288C542.777 104.256 542.867 104.242 542.956 104.247Z" fill="white"/>
<path d="M600.013 147.018C595.841 152.484 590.403 157.331 583.961 161.326C582.464 162.25 580.92 163.128 579.327 163.96L568.302 132.083L593.132 127.119L600.013 147.018Z" fill="#367CFF"/>
<path d="M579.569 163.835C579.49 163.875 579.405 163.919 579.327 163.96C579.25 164.002 579.17 164.043 579.091 164.082L570.688 139.797L571.218 139.692L579.569 163.835Z" fill="#0C0C0C"/>
<path d="M519.354 155.549C519.285 155.546 519.221 155.525 519.172 155.488C519.124 155.452 519.095 155.402 519.092 155.35L518.55 146.301C518.547 146.246 518.572 146.192 518.621 146.151C518.67 146.111 518.738 146.086 518.811 146.084C518.883 146.082 518.954 146.101 519.008 146.138C519.061 146.175 519.093 146.227 519.096 146.282L519.638 155.332C519.641 155.387 519.615 155.44 519.567 155.481C519.518 155.522 519.45 155.546 519.378 155.549H519.354Z" fill="#0C0C0C"/>
<path d="M315.133 239.289C353.782 239.289 385.114 215.478 385.114 186.106C385.114 156.734 353.782 132.923 315.133 132.923C276.484 132.923 245.152 156.734 245.152 186.106C245.152 215.478 276.484 239.289 315.133 239.289Z" fill="white"/>
<path opacity="0.09" d="M385.114 186.105C385.114 196.624 381.01 206.906 373.321 215.652C365.631 224.397 354.702 231.214 341.915 235.239C329.128 239.264 315.057 240.318 301.482 238.266C287.907 236.214 275.438 231.148 265.652 223.711C255.865 216.273 249.2 206.797 246.5 196.481C243.799 186.164 245.185 175.471 250.482 165.753C255.778 156.036 264.748 147.73 276.256 141.886C287.764 136.042 301.294 132.923 315.135 132.923C324.334 132.897 333.449 134.255 341.955 136.919C350.46 139.582 358.188 143.499 364.693 148.442C371.198 153.386 376.352 159.259 379.857 165.723C383.361 172.187 385.148 179.114 385.114 186.105Z" fill="#367CFF"/>
<path d="M284.156 154.738C284.156 154.738 283.453 162.767 281.075 165.68C274.233 174.065 272.251 183.499 279.103 188.428C285.955 193.358 329.66 193.425 332.97 182.089C335.756 172.546 329.776 171.519 328.321 163.647C327.662 160.085 325.85 152.615 325.85 152.615" fill="#0A0A0A"/>
<path d="M321.658 180.426C321.583 180.418 320.746 190.975 304.608 190.056C293.436 189.42 289.453 180.412 289.197 180.412C290.401 180.218 292.43 179.935 292.966 179.718C294.725 179 296.902 178.253 297.469 175.656C297.796 174.162 297.241 166.504 297.414 164.99L314.562 167.899C314.323 171.096 312.646 178.51 318.524 179.821C319.499 180.037 320.552 180.236 321.658 180.426Z" fill="#E98862"/>
<path opacity="0.5" d="M314.799 176.791C314.531 176.133 314.358 175.454 314.284 174.768C314.095 173.201 314.133 171.624 314.396 170.063C310.91 169.706 307.627 168.613 304.918 166.908C304.6 167.802 302.848 171.707 303.334 172.557C304.252 174.161 308.557 176.791 314.799 176.791Z" fill="#0C0C0C"/>
<path d="M312.582 173.502C305.821 174 297.073 171.943 295.261 165.101L293.626 158.927C291.814 152.084 295.074 145.814 303.551 144.518C312.028 143.221 319.834 147.797 321.646 154.641L322.37 157.374C323.066 160 324.645 172.614 312.582 173.502Z" fill="#E98862"/>
<path opacity="0.1" d="M308.284 164.537C309.397 164.436 310.22 163.851 310.122 163.231C310.025 162.61 309.044 162.189 307.931 162.29C306.819 162.391 305.996 162.976 306.093 163.596C306.191 164.216 307.172 164.638 308.284 164.537Z" fill="#0C0C0C"/>
<path opacity="0.1" d="M320.041 162.055C320.141 162.674 321.122 163.093 322.234 162.995C322.427 162.978 322.616 162.945 322.8 162.898C322.851 162.16 322.854 161.449 322.826 160.791C322.517 160.733 322.196 160.719 321.88 160.75C320.768 160.849 319.945 161.434 320.041 162.055Z" fill="#0C0C0C"/>
<path opacity="0.5" d="M315.125 163.97H315.141C315.485 163.915 315.824 163.845 316.157 163.762C316.655 163.638 317.304 163.428 317.216 163.086C317.113 162.696 314.594 158.704 314.306 158.25C314.279 158.213 314.235 158.185 314.181 158.172C314.128 158.159 314.07 158.162 314.02 158.18C313.97 158.199 313.93 158.231 313.911 158.271C313.891 158.311 313.891 158.355 313.913 158.394C314.987 160.096 316.718 162.889 316.788 163.151C316.733 163.273 315.908 163.513 315.055 163.643C315.001 163.653 314.954 163.678 314.923 163.713C314.892 163.748 314.879 163.79 314.888 163.832C314.897 163.873 314.927 163.911 314.971 163.937C315.015 163.962 315.07 163.975 315.125 163.97V163.97Z" fill="#0C0C0C"/>
<path d="M286.862 161.143L294.462 160.015C300.203 158.188 301.832 150.587 301.832 150.587C301.832 150.587 308.917 155.715 325.85 152.614C325.85 152.614 322.172 134.649 297.169 140.102C289.106 141.86 283.395 148.105 284.245 156.377C284.84 162.175 286.862 161.143 286.862 161.143Z" fill="#0A0A0A"/>
<path d="M296.339 167.105C293.763 167.499 291.12 165.724 290.604 163.766C290.088 161.808 291.888 160.409 294.464 160.015L296.139 161.124L298.557 166.766L296.339 167.105Z" fill="#E98862"/>
<path d="M316.133 155.067C316.778 154.72 317.532 154.51 318.318 154.457C318.713 154.428 319.111 154.445 319.5 154.506C319.891 154.567 320.272 154.664 320.632 154.797L320.643 154.8C320.683 154.813 320.727 154.813 320.767 154.801C320.806 154.789 320.839 154.766 320.857 154.737C320.875 154.707 320.878 154.674 320.864 154.643C320.851 154.612 320.823 154.586 320.785 154.571C320.404 154.418 319.999 154.302 319.579 154.226C319.157 154.148 318.722 154.119 318.289 154.139C317.411 154.176 316.562 154.391 315.831 154.762C315.802 154.776 315.778 154.793 315.759 154.814C315.74 154.836 315.726 154.859 315.72 154.884C315.713 154.909 315.713 154.935 315.719 154.96C315.726 154.985 315.739 155.009 315.758 155.03C315.777 155.051 315.801 155.069 315.83 155.083C315.858 155.097 315.889 155.106 315.923 155.11C315.956 155.115 315.99 155.114 316.022 155.108C316.055 155.102 316.086 155.092 316.113 155.077L316.119 155.074L316.133 155.067Z" fill="#0C0C0C"/>
<path d="M309.191 155.796C308.328 155.666 307.435 155.714 306.604 155.935C306.194 156.042 305.807 156.196 305.457 156.392C305.108 156.584 304.792 156.809 304.517 157.061C304.489 157.086 304.475 157.118 304.478 157.151C304.481 157.184 304.5 157.215 304.532 157.237C304.564 157.259 304.606 157.271 304.649 157.27C304.693 157.269 304.734 157.255 304.764 157.232L304.773 157.225C305.038 156.997 305.34 156.796 305.671 156.627C305.999 156.457 306.359 156.325 306.738 156.237C307.491 156.057 308.294 156.032 309.064 156.165L309.083 156.168C309.115 156.175 309.149 156.176 309.182 156.173C309.215 156.169 309.247 156.161 309.276 156.148C309.304 156.135 309.329 156.118 309.349 156.097C309.369 156.077 309.383 156.054 309.391 156.029C309.399 156.004 309.4 155.979 309.395 155.954C309.39 155.929 309.378 155.905 309.36 155.883C309.342 155.862 309.319 155.843 309.292 155.828C309.265 155.814 309.234 155.803 309.201 155.798L309.191 155.796Z" fill="#0C0C0C"/>
<path d="M294.467 159.92C299.576 158.475 301.271 155.794 301.794 153.798C302.131 152.468 302.1 151.098 301.701 149.777L301.542 149.81C301.936 151.114 301.966 152.466 301.631 153.779C301.116 155.741 299.446 158.38 294.41 159.803L294.467 159.92Z" fill="#0C0C0C"/>
<path d="M359.06 178.323L362.119 170.436C362.186 170.263 362.3 170.102 362.454 169.964C362.607 169.826 362.797 169.714 363.01 169.634C363.224 169.555 363.457 169.511 363.694 169.504C363.932 169.496 364.169 169.527 364.39 169.593C364.793 169.725 365.117 169.966 365.3 170.27C365.482 170.573 365.51 170.917 365.378 171.235L364.722 172.927L369.995 168.328C370.57 167.809 371.711 167.451 372.435 167.979C372.731 168.169 372.934 168.429 373.011 168.717C373.087 169.005 373.033 169.304 372.856 169.566C372.864 169.569 372.872 169.573 372.878 169.577C372.883 169.58 372.887 169.584 372.89 169.589L373.776 168.788C373.94 168.64 374.146 168.521 374.378 168.441C374.61 168.361 374.863 168.321 375.118 168.325C375.373 168.328 375.623 168.375 375.851 168.461C376.079 168.548 376.279 168.672 376.436 168.824C376.677 169.068 376.801 169.368 376.786 169.673C376.771 169.978 376.619 170.27 376.355 170.499L375.978 170.84C375.986 170.853 375.991 170.867 375.992 170.882C376.317 170.697 376.718 170.605 377.124 170.624C377.529 170.643 377.912 170.771 378.205 170.985C378.517 171.226 378.697 171.548 378.71 171.886C378.723 172.223 378.568 172.552 378.276 172.807L377.339 173.653C377.363 173.648 377.389 173.648 377.413 173.652C377.438 173.656 377.461 173.664 377.48 173.676C377.502 173.692 377.518 173.712 377.526 173.734C377.876 173.63 378.261 173.617 378.622 173.696C378.983 173.775 379.3 173.943 379.523 174.172C379.752 174.416 379.866 174.712 379.846 175.011C379.826 175.31 379.674 175.596 379.414 175.821L371.513 182.961C370.408 183.96 368.935 184.685 367.284 185.043C365.633 185.402 363.879 185.377 362.246 184.973C360.839 184.625 359.665 183.873 358.975 182.877C358.286 181.882 358.134 180.721 358.552 179.642L359.06 178.323Z" fill="#E98862"/>
<g opacity="0.2">
<path d="M367.664 174.14C367.696 174.159 367.737 174.169 367.777 174.166C367.818 174.163 367.856 174.149 367.883 174.126L372.89 169.748C372.917 169.724 372.931 169.692 372.928 169.661C372.925 169.629 372.906 169.599 372.874 169.578C372.842 169.557 372.801 169.547 372.759 169.549C372.717 169.552 372.679 169.566 372.651 169.59L367.644 173.968C367.631 173.98 367.62 173.994 367.614 174.009C367.607 174.024 367.605 174.04 367.606 174.055C367.607 174.071 367.613 174.086 367.622 174.101C367.632 174.115 367.644 174.127 367.66 174.138L367.664 174.14Z" fill="#0C0C0C"/>
</g>
<g opacity="0.2">
<path d="M370.144 175.871C370.176 175.89 370.216 175.9 370.257 175.897C370.298 175.895 370.336 175.88 370.363 175.857L375.95 170.971C375.964 170.959 375.974 170.945 375.981 170.93C375.987 170.915 375.99 170.9 375.989 170.884C375.987 170.868 375.982 170.853 375.972 170.839C375.963 170.825 375.95 170.812 375.934 170.802C375.902 170.782 375.861 170.772 375.82 170.774C375.779 170.777 375.74 170.791 375.712 170.814L370.128 175.7C370.114 175.712 370.104 175.725 370.097 175.74C370.091 175.755 370.088 175.771 370.09 175.787C370.091 175.803 370.097 175.818 370.106 175.832C370.115 175.846 370.128 175.859 370.144 175.869L370.144 175.871Z" fill="#0C0C0C"/>
</g>
<g opacity="0.2">
<path d="M372.816 177.758C372.848 177.777 372.888 177.787 372.929 177.784C372.97 177.782 373.008 177.767 373.034 177.744L377.492 173.847C377.517 173.823 377.528 173.792 377.524 173.761C377.52 173.731 377.501 173.702 377.471 173.682C377.44 173.662 377.4 173.652 377.36 173.653C377.32 173.654 377.281 173.667 377.253 173.689L372.796 177.587C372.782 177.599 372.772 177.612 372.765 177.627C372.759 177.642 372.756 177.658 372.757 177.674C372.759 177.69 372.764 177.705 372.774 177.719C372.783 177.733 372.796 177.746 372.812 177.756L372.816 177.758Z" fill="#0C0C0C"/>
</g>
<path d="M377.676 181.766L365.85 222.539C365.823 222.63 365.796 222.726 365.763 222.817C363.107 224.929 360.23 226.874 357.16 228.633C356.543 228.982 355.925 229.326 355.292 229.658C354.9 229.691 354.506 229.708 354.112 229.708C352.004 229.708 349.934 229.286 348.108 228.485C346.283 227.684 344.766 226.533 343.712 225.146L321.174 195.509L341.985 186.373L349.037 195.646L354.205 177.834L377.676 181.766Z" fill="#0CBC8B"/>
<path d="M341.281 200.355C341.21 201.002 341.068 202.157 340.871 203.676C339.888 211.443 337.588 228.753 336.523 236.753C323.067 240.022 308.627 240.133 295.086 237.072H295.08C285.08 234.798 275.878 230.849 268.151 225.515C268.195 218.363 268.058 210.318 267.425 205.146C265.529 189.69 267.321 187.271 270.265 185.033C270.505 184.85 270.757 184.672 271.008 184.498C274.05 182.397 277.869 181.027 283.435 180.454C287.116 180.077 292.655 179.803 292.655 179.803C292.655 179.803 293.125 187.017 304.306 187.415C319.53 187.96 318.514 179.803 318.59 179.803C322.419 179.803 330.941 179.985 336.316 182.065C336.321 182.065 336.321 182.065 336.326 182.069C337.409 182.469 338.393 183.007 339.238 183.659C345.394 188.616 342.357 190.735 341.281 200.355Z" fill="#0CBC8B"/>
<path d="M317.391 165.318C315.195 166.167 312.688 166.436 310.268 166.081C310.185 166.069 310.098 166.076 310.019 166.1C309.94 166.123 309.871 166.164 309.821 166.217C309.771 166.269 309.742 166.331 309.737 166.396C309.732 166.461 309.751 166.525 309.792 166.582C310.515 167.548 312.225 169.2 315.16 168.527C317.056 168.092 317.773 166.61 318.038 165.693C318.056 165.63 318.051 165.564 318.021 165.503C317.992 165.442 317.94 165.388 317.872 165.349C317.804 165.31 317.723 165.286 317.638 165.28C317.552 165.275 317.467 165.288 317.391 165.318Z" fill="white"/>
<path d="M317.529 157.893C318.115 157.893 318.59 157.532 318.59 157.087C318.59 156.641 318.115 156.28 317.529 156.28C316.943 156.28 316.468 156.641 316.468 157.087C316.468 157.532 316.943 157.893 317.529 157.893Z" fill="#0C0C0C"/>
<path d="M307.329 159.25C307.915 159.25 308.39 158.889 308.39 158.444C308.39 157.998 307.915 157.637 307.329 157.637C306.742 157.637 306.267 157.998 306.267 158.444C306.267 158.889 306.742 159.25 307.329 159.25Z" fill="#0C0C0C"/>
<path d="M338.934 217.767C338.927 217.768 338.92 217.768 338.913 217.767C338.87 217.763 338.831 217.745 338.805 217.719C338.779 217.693 338.767 217.66 338.773 217.627L340.649 203.26C340.652 203.244 340.659 203.228 340.67 203.214C340.68 203.199 340.695 203.187 340.712 203.177C340.729 203.167 340.749 203.16 340.77 203.156C340.791 203.152 340.813 203.151 340.835 203.154C340.878 203.158 340.916 203.176 340.943 203.202C340.969 203.228 340.98 203.261 340.974 203.294L339.098 217.661C339.092 217.691 339.072 217.718 339.042 217.738C339.012 217.757 338.973 217.768 338.934 217.767Z" fill="#0C0C0C"/>
<path d="M327.576 217.075L337.832 213.594C338.057 213.518 338.301 213.479 338.547 213.478C338.794 213.477 339.038 213.515 339.264 213.59C339.49 213.665 339.693 213.775 339.86 213.912C340.027 214.05 340.155 214.212 340.235 214.389C340.37 214.72 340.339 215.077 340.147 215.391C339.955 215.705 339.617 215.954 339.197 216.089L336.998 216.837L345.332 216.902C346.26 216.897 347.4 217.341 347.339 218.131C347.341 218.437 347.208 218.734 346.96 218.974C346.712 219.214 346.364 219.383 345.973 219.454C345.975 219.46 345.977 219.467 345.977 219.474C345.976 219.479 345.975 219.484 345.973 219.489L347.402 219.482C347.666 219.48 347.928 219.524 348.167 219.609C348.407 219.694 348.618 219.819 348.786 219.974C348.954 220.129 349.075 220.311 349.139 220.505C349.203 220.7 349.209 220.904 349.157 221.101C349.066 221.41 348.837 221.685 348.51 221.882C348.183 222.078 347.778 222.184 347.361 222.18L346.753 222.183C346.745 222.197 346.734 222.209 346.72 222.219C347.132 222.29 347.497 222.469 347.751 222.725C348.004 222.981 348.13 223.297 348.105 223.617C348.064 223.966 347.851 224.291 347.509 224.527C347.167 224.762 346.72 224.891 346.259 224.887L344.748 224.895C344.77 224.907 344.787 224.922 344.8 224.939C344.812 224.957 344.818 224.976 344.819 224.996C344.817 225.02 344.807 225.042 344.79 225.062C345.134 225.202 345.408 225.424 345.569 225.694C345.731 225.964 345.771 226.267 345.684 226.556C345.585 226.858 345.354 227.126 345.03 227.316C344.706 227.506 344.307 227.607 343.897 227.603L331.154 227.672C329.371 227.682 327.626 227.287 326.14 226.537C324.655 225.788 323.498 224.719 322.818 223.466C322.231 222.387 322.221 221.175 322.79 220.09C323.36 219.005 324.464 218.131 325.868 217.655L327.576 217.075Z" fill="#E98862"/>
<g opacity="0.2">
<path d="M337.724 219.42C337.724 219.453 337.742 219.485 337.772 219.508C337.803 219.531 337.845 219.544 337.888 219.544L345.813 219.599C345.856 219.599 345.898 219.586 345.929 219.563C345.96 219.54 345.978 219.508 345.978 219.475C345.979 219.442 345.962 219.41 345.931 219.387C345.901 219.363 345.859 219.35 345.816 219.35L337.89 219.295C337.846 219.295 337.805 219.308 337.774 219.332C337.743 219.355 337.726 219.387 337.726 219.42H337.724Z" fill="#0C0C0C"/>
</g>
<g opacity="0.2">
<path d="M337.596 222.077C337.596 222.11 337.614 222.141 337.644 222.165C337.675 222.188 337.717 222.201 337.76 222.201L346.604 222.262C346.647 222.262 346.689 222.249 346.72 222.225C346.75 222.202 346.768 222.17 346.768 222.137C346.766 222.104 346.749 222.073 346.718 222.05C346.688 222.027 346.647 222.014 346.604 222.013L337.76 221.952C337.716 221.952 337.675 221.965 337.644 221.989C337.613 222.012 337.596 222.044 337.596 222.077Z" fill="#0C0C0C"/>
</g>
<g opacity="0.2">
<path d="M337.436 224.95C337.436 224.983 337.453 225.015 337.484 225.038C337.515 225.062 337.556 225.075 337.6 225.075L344.654 225.124C344.698 225.124 344.739 225.11 344.77 225.087C344.801 225.064 344.818 225.032 344.818 224.999C344.818 224.966 344.801 224.934 344.77 224.911C344.739 224.888 344.698 224.874 344.654 224.874L337.6 224.826C337.556 224.826 337.515 224.839 337.484 224.863C337.453 224.886 337.436 224.918 337.436 224.951V224.95Z" fill="#0C0C0C"/>
</g>
<path d="M330.515 230.954L295.086 237.072H295.08C285.08 234.798 275.878 230.849 268.151 225.515C267.321 224.943 266.509 224.356 265.715 223.755C264.331 222.705 263.007 221.614 261.744 220.48L266.704 190.16C267.245 187.716 269.041 185.535 271.698 184.098C274.355 182.66 277.654 182.083 280.87 182.495C284.086 182.906 286.956 184.271 288.847 186.29C290.739 188.309 291.497 190.817 290.956 193.261L287.821 221.73L327.325 214.934L330.515 230.954Z" fill="#0CBC8B"/>
<path d="M279.83 222.848C279.809 222.849 279.787 222.847 279.766 222.842C279.746 222.837 279.727 222.829 279.711 222.818C279.694 222.807 279.681 222.794 279.671 222.78C279.661 222.765 279.656 222.749 279.654 222.733C279.652 222.716 279.655 222.7 279.662 222.684C279.668 222.669 279.679 222.654 279.693 222.642C279.707 222.629 279.724 222.619 279.744 222.612C279.763 222.605 279.784 222.6 279.806 222.599L287.726 221.312C287.747 221.309 287.769 221.31 287.79 221.314C287.811 221.318 287.831 221.325 287.848 221.335C287.865 221.345 287.88 221.357 287.891 221.371C287.902 221.385 287.91 221.4 287.913 221.417C287.916 221.433 287.915 221.449 287.91 221.465C287.904 221.481 287.895 221.496 287.882 221.509C287.869 221.522 287.853 221.533 287.835 221.542C287.816 221.55 287.796 221.556 287.775 221.558L279.851 222.845C279.844 222.846 279.837 222.847 279.83 222.848Z" fill="#0C0C0C"/>
<path d="M330.515 230.954C330.523 230.985 330.516 231.019 330.494 231.046C330.471 231.074 330.436 231.094 330.394 231.103L295.976 237.267C295.758 237.221 295.545 237.176 295.332 237.126L330.154 230.895L327.051 215.121L287.783 221.559C287.757 221.562 287.731 221.561 287.707 221.555C287.682 221.549 287.659 221.54 287.641 221.526C287.624 221.511 287.612 221.494 287.605 221.476C287.597 221.457 287.595 221.438 287.597 221.418L289.798 205.15C289.802 205.134 289.81 205.118 289.822 205.104C289.834 205.091 289.849 205.079 289.867 205.07C289.884 205.06 289.904 205.054 289.925 205.05C289.947 205.047 289.968 205.047 289.989 205.05C290.032 205.055 290.071 205.073 290.096 205.099C290.122 205.126 290.132 205.159 290.126 205.191L287.957 221.294L327.122 214.843C327.144 214.838 327.166 214.837 327.188 214.84C327.209 214.843 327.23 214.85 327.248 214.859C327.267 214.867 327.283 214.878 327.297 214.89C327.31 214.903 327.319 214.918 327.325 214.934L330.515 230.954Z" fill="#0C0C0C"/>
<path d="M64.1683 300.566C99.6074 300.566 128.337 278.733 128.337 251.8C128.337 224.868 99.6074 203.035 64.1683 203.035C28.7291 203.035 0 224.868 0 251.8C0 278.733 28.7291 300.566 64.1683 300.566Z" fill="white"/>
<path opacity="0.09" d="M64.1683 300.566C99.6074 300.566 128.337 278.733 128.337 251.8C128.337 224.868 99.6074 203.035 64.1683 203.035C28.7291 203.035 0 224.868 0 251.8C0 278.733 28.7291 300.566 64.1683 300.566Z" fill="#367CFF"/>
<path d="M46.4971 224.141C46.4971 224.141 47.1924 238.828 60.0917 239.503L62.2767 220.135L46.4971 224.141Z" fill="#0A0A0A"/>
<path d="M48.9813 242.503C53.2018 242.503 56.6232 239.903 56.6232 236.696C56.6232 233.488 53.2018 230.888 48.9813 230.888C44.7609 230.888 41.3395 233.488 41.3395 236.696C41.3395 239.903 44.7609 242.503 48.9813 242.503Z" fill="#0A0A0A"/>
<path d="M78.8816 246.32C78.8133 246.313 78.0584 255.836 63.5002 255.006C53.4217 254.434 49.8285 246.307 49.598 246.307C50.7497 246.162 51.8858 245.952 52.9972 245.681C54.584 245.033 56.5478 244.359 57.059 242.017C57.354 240.667 56.8542 233.76 57.0077 232.394L72.4781 235.019C72.2596 237.903 70.7487 244.59 76.0516 245.774C76.9332 245.97 77.8836 246.15 78.8816 246.32Z" fill="#E98862"/>
<path opacity="0.5" d="M72.6945 243.04C72.452 242.446 72.2959 241.834 72.2291 241.214C72.0592 239.8 72.0931 238.377 72.3301 236.97C69.1858 236.647 66.2236 235.661 63.7799 234.123C63.4926 234.929 61.9129 238.452 62.3504 239.218C63.1774 240.669 67.0628 243.04 72.6945 243.04Z" fill="#0C0C0C"/>
<path d="M70.2708 240.474C64.1437 240.534 56.4839 238.184 55.5345 231.929L54.678 226.283C53.7281 220.028 57.2814 214.577 65.0314 213.899C72.7808 213.22 79.3427 217.783 80.2926 224.038L80.6717 226.537C81.036 228.938 81.2032 240.369 70.2708 240.474Z" fill="#E98862"/>
<path d="M78.4507 226.369C78.9813 226.369 79.4115 226.042 79.4115 225.639C79.4115 225.236 78.9813 224.909 78.4507 224.909C77.92 224.909 77.4899 225.236 77.4899 225.639C77.4899 226.042 77.92 226.369 78.4507 226.369Z" fill="#0C0C0C"/>
<path d="M68.6299 227.222C69.1605 227.222 69.5907 226.896 69.5907 226.492C69.5907 226.089 69.1605 225.762 68.6299 225.762C68.0992 225.762 67.6691 226.089 67.6691 226.492C67.6691 226.896 68.0992 227.222 68.6299 227.222Z" fill="#0C0C0C"/>
<path opacity="0.5" d="M73.5035 232.052H73.5187C73.8327 232.022 74.1444 231.98 74.4523 231.925C74.9122 231.839 75.5185 231.69 75.471 231.377C75.4164 231.021 73.5488 227.288 73.3358 226.863C73.3265 226.845 73.3127 226.828 73.2949 226.814C73.2772 226.8 73.2559 226.788 73.2323 226.78C73.2087 226.772 73.1833 226.768 73.1574 226.767C73.1316 226.767 73.1059 226.77 73.0818 226.777C73.0576 226.784 73.0355 226.795 73.0168 226.808C72.998 226.822 72.9829 226.838 72.9723 226.856C72.9618 226.874 72.956 226.893 72.9553 226.913C72.9546 226.932 72.9589 226.952 72.9681 226.97C73.7651 228.56 75.0438 231.171 75.0799 231.412C74.5882 231.622 74.0373 231.74 73.4734 231.755C73.4214 231.758 73.3731 231.776 73.3391 231.806C73.3052 231.837 73.2884 231.876 73.2923 231.915C73.2963 231.955 73.3208 231.991 73.3604 232.017C73.4 232.043 73.4514 232.056 73.5035 232.053V232.052Z" fill="#0C0C0C"/>
<path opacity="0.5" d="M72.1182 234.655C73.3769 234.6 74.6011 234.322 75.6922 233.842C75.7352 233.821 75.7662 233.789 75.779 233.752C75.7918 233.715 75.7852 233.675 75.7607 233.642C75.7363 233.608 75.6957 233.583 75.6475 233.571C75.5992 233.56 75.547 233.563 75.5016 233.58C73.1451 234.571 70.8913 234.628 68.985 233.746C68.9465 233.727 68.9067 233.71 68.8659 233.694C68.8187 233.68 68.7662 233.681 68.7193 233.695C68.6724 233.71 68.6348 233.738 68.6142 233.773C68.5936 233.808 68.5916 233.848 68.6087 233.884C68.6258 233.921 68.6606 233.95 68.7059 233.968C68.7206 233.974 68.7457 233.985 68.7801 234.001C69.7824 234.467 70.9447 234.694 72.1182 234.655Z" fill="#0C0C0C"/>
<path d="M48.3772 227.888L55.3215 227.31C60.6631 225.999 62.8825 219.257 62.8825 219.257C62.8825 219.257 67.6691 223.393 81.8537 221.505C81.8537 221.505 81.3042 207.607 59.7312 209.564C52.22 210.246 46.5561 215.97 46.4976 223.455C46.4572 228.7 48.3772 227.888 48.3772 227.888Z" fill="#0A0A0A"/>
<path d="M56.3052 233.793C53.9499 234 51.7502 232.252 51.4787 230.462C51.2072 228.672 52.9661 227.518 55.3215 227.311L56.7171 228.404L58.3301 233.615L56.3052 233.793Z" fill="#E98862"/>
<path d="M75.0525 223.817C75.7472 223.525 76.5323 223.38 77.326 223.397C77.7178 223.403 78.1062 223.455 78.478 223.549C78.8473 223.641 79.1999 223.769 79.5273 223.928C79.5601 223.944 79.5835 223.969 79.5928 223.997C79.6021 224.026 79.5964 224.056 79.5771 224.082C79.5577 224.108 79.5261 224.126 79.4889 224.135C79.4516 224.143 79.4116 224.14 79.3771 224.127L79.3672 224.122C79.057 223.982 78.7249 223.873 78.3786 223.796C78.0356 223.718 77.679 223.68 77.321 223.683C76.6088 223.686 75.9102 223.832 75.2962 224.106L75.2814 224.113C75.256 224.126 75.2276 224.135 75.1977 224.139C75.1678 224.143 75.1372 224.142 75.1075 224.137C75.0779 224.132 75.0499 224.123 75.0253 224.109C75.0006 224.096 74.9798 224.079 74.964 224.059C74.9482 224.039 74.9379 224.017 74.9335 223.994C74.9291 223.972 74.9308 223.948 74.9385 223.926C74.9462 223.904 74.9597 223.883 74.9783 223.865C74.9968 223.846 75.0201 223.831 75.0465 223.82L75.0525 223.817Z" fill="#0C0C0C"/>
<path d="M68.8288 224.687C68.1497 224.523 67.4257 224.5 66.7307 224.619C66.3806 224.677 66.0442 224.775 65.7327 224.909C65.4179 225.043 65.1265 225.206 64.8653 225.395L64.8571 225.401C64.8274 225.418 64.7906 225.426 64.7538 225.423C64.717 225.42 64.6827 225.408 64.6574 225.387C64.6321 225.367 64.6176 225.34 64.6167 225.312C64.6157 225.284 64.6284 225.256 64.6523 225.235C64.9246 225.024 65.2307 224.84 65.5634 224.687C65.8981 224.532 66.2616 224.416 66.6416 224.343C67.4102 224.192 68.2181 224.2 68.9812 224.367C69.0106 224.373 69.0383 224.383 69.0625 224.397C69.0867 224.411 69.1069 224.429 69.1219 224.449C69.1369 224.469 69.1464 224.491 69.1498 224.514C69.1533 224.537 69.1506 224.56 69.1419 224.582C69.1332 224.605 69.1187 224.625 69.0993 224.643C69.0799 224.661 69.0559 224.676 69.0289 224.686C69.0019 224.697 68.9723 224.703 68.9419 224.705C68.9116 224.707 68.8811 224.704 68.8522 224.696H68.8462L68.8288 224.687Z" fill="#0C0C0C"/>
<path opacity="0.52" d="M72.2498 236.069C72.4776 236.062 72.7042 236.04 72.9271 236.004C72.9767 235.994 73.0196 235.971 73.0467 235.938C73.0739 235.905 73.0831 235.865 73.0726 235.827C73.062 235.789 73.0325 235.756 72.9902 235.734C72.9478 235.713 72.8961 235.704 72.8457 235.711C72.4976 235.788 72.1318 235.808 71.7727 235.769C71.4136 235.731 71.0695 235.634 70.7635 235.486C70.7231 235.461 70.6712 235.449 70.6193 235.453C70.5673 235.457 70.5196 235.477 70.4866 235.507C70.4535 235.538 70.4379 235.578 70.4431 235.617C70.4484 235.656 70.474 235.693 70.5144 235.718C71.022 235.984 71.6353 236.108 72.2498 236.069Z" fill="#0C0C0C"/>
<path opacity="0.1" d="M67.2992 232.167C68.3095 232.14 69.1075 231.662 69.0815 231.099C69.0556 230.536 68.2155 230.101 67.2052 230.128C66.1949 230.155 65.3969 230.633 65.4229 231.196C65.4488 231.759 66.2889 232.194 67.2992 232.167Z" fill="#0C0C0C"/>
<path opacity="0.1" d="M78.1114 230.613C78.1398 231.175 78.9794 231.609 79.9899 231.584C80.1646 231.579 80.3381 231.56 80.5078 231.528C80.6274 230.868 80.7006 230.229 80.7405 229.636C80.4684 229.566 80.1815 229.535 79.8944 229.544C78.886 229.57 78.0885 230.047 78.1114 230.613Z" fill="#0C0C0C"/>
<path d="M100.624 256.351C100.581 259.676 99.0786 263.64 98.5433 268.431C98.4012 269.709 94.7901 273.408 94.2657 277.522C93.6048 282.76 95.0747 290.93 95.2713 294.463C85.1213 298.731 73.6396 300.83 62.0456 300.538C50.4516 300.246 39.1783 297.572 29.4229 292.802C29.1607 283.728 28.8493 272.524 28.4506 269.838C27.156 260.971 27.5056 255.363 29.3737 252.739C32.4271 248.455 37.8622 247.147 43.5485 246.558C47.0225 246.201 52.239 245.948 52.239 245.948C52.239 245.948 52.6815 252.743 63.2238 253.121C77.5734 253.636 76.6174 245.948 76.6885 245.948C81.8941 245.948 91.759 246.894 95.539 248.854C99.5483 250.925 100.674 253.382 100.624 256.351Z" fill="#FFC239"/>
<path d="M51.0483 261.523L31.5805 293.809C24.1058 290.456 17.6023 285.986 12.4623 280.671L28.7019 253.738L51.0483 261.523Z" fill="#FFC239"/>
<path d="M116.351 280.182C112.537 284.226 107.934 287.804 102.7 290.793C100.978 291.781 99.189 292.701 97.3416 293.549L77.3604 260.165L99.7341 252.428L116.351 280.182Z" fill="#FFC239"/>
<path d="M197.713 109.545C234.61 109.545 264.522 86.8137 264.522 58.7727C264.522 30.7317 234.61 8 197.713 8C160.815 8 130.903 30.7317 130.903 58.7727C130.903 86.8137 160.815 109.545 197.713 109.545Z" fill="white"/>
<path opacity="0.09" d="M197.713 109.545C234.61 109.545 264.522 86.8137 264.522 58.7727C264.522 30.7317 234.61 8 197.713 8C160.815 8 130.903 30.7317 130.903 58.7727C130.903 86.8137 160.815 109.545 197.713 109.545Z" fill="#367CFF"/>
<path d="M210.631 28.369C210.631 28.369 214.862 24.8845 214.534 18.2476C214.281 13.1088 208.974 17.1907 208.974 17.1907C208.974 17.1907 208.744 13.492 205.369 14.3264C201.994 15.1608 200.956 19.2223 200.956 19.2223" fill="#0C0C0C"/>
<path d="M187.57 17.2114C187.57 17.2114 170.722 20.9745 181.147 37.8142L182.686 37.6822L185.809 37.4148" fill="#0C0C0C"/>
<path d="M211.447 55.282C211.371 55.2745 210.518 66.017 194.097 65.0788C182.729 64.4316 178.675 55.2654 178.415 55.2654C179.64 55.0674 181.155 54.7673 181.757 54.6639C183.069 54.4325 184.257 53.903 185.164 53.1458C186.07 52.3886 186.652 51.4396 186.831 50.4251C187.164 48.9025 186.599 41.1123 186.773 39.5718L204.223 42.5316C203.979 45.7857 202.273 53.3289 208.254 54.6639C209.25 54.8851 210.322 55.0886 211.447 55.282Z" fill="#E98862"/>
<path opacity="0.52" d="M204.468 51.5816C204.195 50.9121 204.019 50.222 203.943 49.5235C203.752 47.9294 203.79 46.3241 204.058 44.7363C200.511 44.3725 197.17 43.2599 194.413 41.525C194.089 42.4345 192.307 46.4084 192.8 47.2727C193.733 48.9066 198.116 51.5816 204.468 51.5816Z" fill="#0C0C0C"/>
<path d="M201.62 48.1615C194.737 48.6318 185.853 46.4944 184.071 39.522L182.464 33.2309C180.683 26.2569 184.057 19.8952 192.695 18.6208C201.334 17.346 209.234 22.0455 211.016 29.0179L211.726 31.8029C211.949 32.7623 212.085 33.7322 212.134 34.7058C212.288 37.2796 212.509 41.1912 210.881 44.0829C209.345 46.8136 206.018 47.8613 201.62 48.1615Z" fill="#E98862"/>
<path opacity="0.5" d="M202.66 41.2684C203.921 41.2504 205.158 41.0075 206.273 40.5594C206.297 40.5511 206.319 40.5391 206.337 40.5242C206.355 40.5093 206.368 40.4918 206.377 40.4728C206.386 40.4537 206.39 40.4335 206.388 40.4133C206.386 40.3931 206.379 40.3734 206.367 40.3554C206.355 40.3373 206.339 40.3213 206.318 40.3083C206.298 40.2953 206.274 40.2855 206.249 40.2796C206.224 40.2737 206.197 40.2718 206.17 40.2739C206.144 40.276 206.118 40.2822 206.095 40.2921C203.692 41.2141 201.436 41.2053 199.575 40.2697C199.538 40.2499 199.499 40.2316 199.459 40.2149C199.436 40.2062 199.41 40.2011 199.385 40.1998C199.359 40.1986 199.333 40.2012 199.308 40.2075C199.284 40.2139 199.261 40.2238 199.242 40.2368C199.223 40.2498 199.207 40.2655 199.195 40.2832C199.184 40.3008 199.177 40.32 199.176 40.3396C199.174 40.3592 199.177 40.3788 199.186 40.3974C199.194 40.416 199.207 40.4332 199.224 40.448C199.241 40.4627 199.262 40.4748 199.285 40.4834C199.3 40.4897 199.324 40.5021 199.358 40.5191C200.336 41.0132 201.486 41.2741 202.66 41.2684Z" fill="#0C0C0C"/>
<path opacity="0.52" d="M202.721 42.6869C202.949 42.6864 203.176 42.6711 203.401 42.6412C203.426 42.6379 203.451 42.6309 203.473 42.6204C203.495 42.61 203.514 42.5963 203.528 42.5803C203.543 42.5643 203.554 42.5462 203.56 42.5271C203.566 42.5079 203.566 42.4881 203.562 42.4688C203.558 42.4494 203.548 42.4309 203.534 42.4143C203.521 42.3977 203.503 42.3833 203.482 42.3719C203.461 42.3606 203.437 42.3525 203.412 42.3481C203.386 42.3438 203.36 42.3432 203.335 42.3465C202.983 42.4135 202.617 42.4227 202.26 42.3736C201.903 42.3245 201.564 42.2182 201.265 42.0617C201.226 42.0365 201.175 42.024 201.124 42.0268C201.073 42.0297 201.025 42.0477 200.991 42.0771C200.957 42.1064 200.939 42.1447 200.942 42.1837C200.945 42.2228 200.967 42.2594 201.005 42.2859C201.499 42.5664 202.105 42.7081 202.721 42.6869Z" fill="#0C0C0C"/>
<path d="M208.949 33.5597C209.547 33.5597 210.032 33.1909 210.032 32.7361C210.032 32.2812 209.547 31.9125 208.949 31.9125C208.35 31.9125 207.865 32.2812 207.865 32.7361C207.865 33.1909 208.35 33.5597 208.949 33.5597Z" fill="#0C0C0C"/>
<path d="M198.411 34.4958C199.009 34.4958 199.494 34.127 199.494 33.6722C199.494 33.2173 199.009 32.8486 198.411 32.8486C197.812 32.8486 197.327 33.2173 197.327 33.6722C197.327 34.127 197.812 34.4958 198.411 34.4958Z" fill="#0C0C0C"/>
<path d="M185.151 41.5669C182.526 41.9542 179.852 40.1339 179.342 38.1388C178.832 36.1438 180.68 34.7299 183.305 34.3426L184.998 35.4796L187.407 41.234L185.151 41.5669Z" fill="#E98862"/>
<path d="M187.003 37.9935C187.003 37.9935 185.536 27.983 189.337 26.8298C191.867 26.0614 198.914 28.0174 204.613 26.3503C207.106 25.6205 209.673 25.7691 210.143 26.6621C210.329 27.0153 210.682 21.5196 205.685 18.0728C201.706 15.3289 190.956 15.8781 186.412 17.5826C173.828 22.3021 182.866 34.8515 182.866 34.8515L184.27 38.1791L187.003 37.9935Z" fill="#0C0C0C"/>
<g opacity="0.52">
<path d="M204.276 38.7893H204.293C205.14 38.6648 206.541 38.3879 206.423 37.9068C206.322 37.5078 203.801 33.4131 203.515 32.9478C203.503 32.9279 203.486 32.9102 203.464 32.8954C203.443 32.8807 203.418 32.8692 203.391 32.8618C203.364 32.8544 203.335 32.851 203.307 32.852C203.278 32.853 203.25 32.8583 203.223 32.8676C203.197 32.8769 203.174 32.89 203.155 32.9062C203.135 32.9224 203.12 32.9413 203.11 32.9619C203.101 32.9825 203.096 33.0043 203.098 33.0262C203.099 33.048 203.106 33.0695 203.118 33.0893C204.236 34.9026 205.924 37.6971 205.992 37.969C205.938 38.0936 205.09 38.3339 204.214 38.4614C204.156 38.4679 204.104 38.4917 204.069 38.5275C204.034 38.5632 204.019 38.6081 204.028 38.6521C204.036 38.6962 204.068 38.7358 204.115 38.7623C204.162 38.7888 204.221 38.8 204.279 38.7935L204.276 38.7893Z" fill="#0C0C0C"/>
</g>
<path d="M204.875 28.756C205.722 28.4473 206.663 28.3183 207.598 28.3823C208.057 28.4117 208.508 28.4931 208.935 28.6239C209.357 28.7514 209.756 28.9188 210.122 29.1221C210.19 29.1579 210.238 29.2123 210.254 29.274C210.27 29.3356 210.254 29.3997 210.21 29.4527C210.165 29.5056 210.095 29.5434 210.015 29.558C209.934 29.5726 209.85 29.5629 209.778 29.531L209.754 29.5243C209.421 29.363 209.063 29.234 208.689 29.1403C208.32 29.0468 207.935 28.9963 207.546 28.9905C206.781 28.9743 206.023 29.1122 205.349 29.3903L205.322 29.4023C205.267 29.4261 205.206 29.4414 205.144 29.4474C205.081 29.4535 205.018 29.4501 204.957 29.4374C204.896 29.4248 204.839 29.4032 204.789 29.3739C204.739 29.3445 204.698 29.308 204.666 29.2663C204.635 29.2247 204.615 29.1788 204.607 29.1313C204.599 29.0837 204.604 29.0355 204.62 28.9892C204.637 28.943 204.665 28.8997 204.704 28.8618C204.742 28.8239 204.79 28.7922 204.845 28.7684L204.875 28.756Z" fill="#0C0C0C"/>
<path d="M198.661 30.032C197.924 29.8751 197.144 29.8689 196.403 30.0141C196.026 30.0854 195.665 30.1998 195.333 30.3533C194.994 30.5078 194.682 30.694 194.405 30.9075L194.387 30.9207C194.327 30.9648 194.247 30.9893 194.164 30.9891C194.08 30.9889 194 30.964 193.941 30.9196C193.882 30.8753 193.847 30.8151 193.845 30.7518C193.843 30.6885 193.874 30.6271 193.931 30.5808C194.228 30.32 194.568 30.0888 194.942 29.8929C195.32 29.6931 195.736 29.5373 196.175 29.4309C196.614 29.321 197.07 29.2573 197.532 29.2416C198.004 29.2218 198.478 29.2531 198.939 29.3346C199.063 29.3566 199.171 29.4151 199.238 29.4974C199.305 29.5796 199.327 29.6787 199.298 29.7729C199.269 29.8672 199.192 29.9488 199.083 29.9999C198.975 30.051 198.845 30.0673 198.721 30.0453L198.692 30.0394L198.661 30.032Z" fill="#0C0C0C"/>
<path d="M201.985 22.1237C203.859 21.5466 204.472 19.3795 203.354 17.2834C202.236 15.1873 199.811 13.9559 197.937 14.5331C196.063 15.1102 195.45 17.2772 196.568 19.3733C197.686 21.4694 200.111 22.7008 201.985 22.1237Z" fill="#0C0C0C"/>
<path d="M234.143 66.3827C234.209 69.824 232.439 73.6929 231.849 78.9317C231.729 79.9944 231.445 82.3357 231.068 85.3868C230.451 90.4388 229.577 97.4252 228.812 103.723C217.876 108.085 205.564 110.061 193.24 109.433C180.917 108.804 169.063 105.595 158.992 100.161C158.752 100.024 158.512 99.891 158.271 99.7624C157.632 92.6431 156.878 85.1709 156.19 80.451C154.895 71.6381 153.131 67.2503 154.12 64.2863C154.199 64.0339 154.305 63.7868 154.437 63.5474C157.283 58.3003 166.345 55.959 172.484 55.3281C176.231 54.942 181.869 54.6639 181.869 54.6639C181.869 54.6639 182.344 62.0032 193.722 62.41C209.213 62.9662 208.181 54.6639 208.257 54.6639C210.764 54.6639 224.426 56.0504 227.84 57.7441C228.412 58.0264 228.959 58.3371 229.478 58.6739C230.962 59.6141 232.15 60.794 232.957 62.1276C233.764 63.4613 234.169 64.9149 234.143 66.3827Z" fill="#383838"/>
<path d="M177.105 71.7045L158.992 100.161C158.752 100.024 158.512 99.8911 158.271 99.7624C151.25 95.8496 145.295 90.9378 140.737 85.2997L154.12 64.2864L154.65 63.452L177.105 71.7045Z" fill="#383838"/>
<path d="M175.357 74.9798L158.883 100.099C158.774 100.036 158.67 99.9782 158.561 99.9243L175.013 74.8511C175.037 74.8162 175.078 74.7897 175.127 74.7773C175.176 74.7649 175.229 74.7675 175.275 74.7847C175.32 74.8023 175.354 74.8328 175.37 74.8693C175.385 74.9059 175.381 74.9457 175.357 74.9798Z" fill="white"/>
<path d="M258.887 79.214C255.604 84.8694 250.993 90.0234 245.281 94.4239L231.068 85.3868L213.015 73.9046L229.478 58.6739L229.527 58.6282L258.887 79.214Z" fill="#383838"/>
<path d="M231.287 85.4976C231.333 85.4959 231.377 85.4814 231.411 85.4569C231.444 85.4324 231.465 85.3995 231.469 85.3644L232.407 77.008C232.411 76.9694 232.395 76.9311 232.362 76.9015C232.33 76.8718 232.283 76.8533 232.232 76.8499C232.181 76.8471 232.131 76.8594 232.093 76.8842C232.054 76.909 232.029 76.9444 232.024 76.9827L231.086 85.3395C231.082 85.378 231.098 85.4162 231.131 85.4458C231.164 85.4753 231.21 85.4938 231.261 85.4972L231.287 85.4976Z" fill="white"/>
<path d="M512.3 329.405C547.493 329.405 576.022 307.724 576.022 280.979C576.022 254.234 547.493 232.552 512.3 232.552C477.107 232.552 448.578 254.234 448.578 280.979C448.578 307.724 477.107 329.405 512.3 329.405Z" fill="white"/>
<path opacity="0.09" d="M448.578 280.978C448.577 290.555 452.314 299.918 459.316 307.882C466.318 315.845 476.27 322.052 487.913 325.718C499.557 329.383 512.369 330.342 524.729 328.473C537.09 326.605 548.444 321.993 557.356 315.22C566.267 308.448 572.336 299.819 574.795 290.426C577.254 281.032 575.992 271.295 571.169 262.447C566.346 253.598 558.179 246.035 547.7 240.714C537.221 235.393 524.901 232.553 512.298 232.553C503.922 232.529 495.622 233.766 487.877 236.191C480.132 238.616 473.096 242.182 467.172 246.684C461.249 251.185 456.557 256.533 453.365 262.418C450.174 268.304 448.547 274.612 448.578 280.978Z" fill="#367CFF"/>
<path d="M541.214 254.256C540.197 263.222 541.14 266.263 546.039 271.4C550.172 275.731 526.66 272.05 516.258 270.642L525.437 250.252C525.437 250.252 541.572 251.107 541.214 254.256Z" fill="#0A0A0A"/>
<path d="M505.324 250.525C502.255 259.217 502.599 261.906 496.593 266.471C491.615 270.254 511.016 271.024 521.427 272.398L521.953 250.853C521.953 250.853 506.402 247.473 505.324 250.525Z" fill="#0A0A0A"/>
<path d="M506.359 275.807C506.427 275.8 507.19 285.412 521.884 284.574C532.056 283.995 535.683 275.793 535.916 275.793C534.754 275.646 533.607 275.435 532.486 275.161C530.884 274.506 528.902 273.826 528.386 271.462C528.088 270.099 528.593 263.128 528.437 261.748L512.822 264.397C513.041 267.309 514.57 274.059 509.217 275.253C508.325 275.452 507.365 275.634 506.359 275.807Z" fill="#E98862"/>
<path opacity="0.5" d="M512.603 272.496C512.848 271.897 513.005 271.279 513.073 270.654C513.245 269.228 513.211 267.791 512.971 266.371C516.145 266.045 519.135 265.05 521.602 263.497C521.892 264.311 523.486 267.867 523.045 268.64C522.21 270.102 518.288 272.496 512.603 272.496Z" fill="#0C0C0C"/>
<path d="M514.623 269.501C520.779 269.954 528.744 268.083 530.395 261.852L531.884 256.23C533.534 250 530.565 244.29 522.846 243.109C515.127 241.929 508.019 246.098 506.369 252.328L505.71 254.818C505.077 257.207 503.638 268.694 514.623 269.501Z" fill="#E98862"/>
<path d="M539.334 258.005L532.39 257.426C518.802 255.528 515.474 247.195 515.474 247.195C515.474 247.195 509.774 252.978 504.935 251.65C504.935 251.65 506.495 237.706 527.979 240.156C536.421 241.119 541.214 246.437 541.214 253.57C541.214 258.815 539.334 258.005 539.334 258.005Z" fill="#0A0A0A"/>
<path opacity="0.1" d="M520.527 260.478C520.616 259.914 519.867 259.381 518.854 259.289C517.841 259.198 516.947 259.581 516.859 260.146C516.77 260.711 517.519 261.243 518.533 261.335C519.546 261.427 520.439 261.043 520.527 260.478Z" fill="#0C0C0C"/>
<path opacity="0.1" d="M507.834 259.079C507.743 259.643 506.85 260.026 505.836 259.935C505.661 259.919 505.489 259.889 505.322 259.846C505.275 259.174 505.272 258.527 505.298 257.928C505.579 257.875 505.871 257.862 506.159 257.89C507.169 257.981 507.919 258.513 507.834 259.079Z" fill="#0C0C0C"/>
<path opacity="0.5" d="M512.308 260.822H512.292C511.98 260.773 511.671 260.71 511.368 260.634C510.914 260.519 510.321 260.33 510.404 260.018C510.498 259.664 512.792 256.029 513.053 255.616C513.064 255.597 513.079 255.581 513.099 255.567C513.118 255.553 513.141 255.542 513.166 255.535C513.191 255.528 513.217 255.525 513.244 255.526C513.27 255.527 513.296 255.532 513.32 255.541C513.344 255.55 513.366 255.562 513.383 255.577C513.401 255.592 513.414 255.61 513.423 255.629C513.431 255.648 513.435 255.669 513.433 255.689C513.431 255.709 513.423 255.729 513.411 255.746C512.432 257.294 510.856 259.839 510.793 260.078C511.264 260.321 511.805 260.475 512.371 260.526C512.421 260.534 512.465 260.556 512.493 260.588C512.522 260.62 512.534 260.66 512.526 260.698C512.518 260.736 512.491 260.771 512.45 260.794C512.409 260.818 512.358 260.828 512.308 260.824V260.822Z" fill="#0C0C0C"/>
<path d="M529.412 263.677C531.759 264.036 534.165 262.419 534.637 260.637C535.11 258.854 533.468 257.58 531.122 257.221L529.597 258.231L527.396 263.368L529.412 263.677Z" fill="#E98862"/>
<path d="M511.389 252.715C511.1 252.559 510.784 252.434 510.451 252.342C510.113 252.245 509.759 252.185 509.4 252.162C509.04 252.136 508.677 252.151 508.323 252.207C507.967 252.262 507.621 252.351 507.293 252.472L507.283 252.476C507.247 252.485 507.208 252.485 507.174 252.474C507.139 252.463 507.111 252.442 507.094 252.417C507.078 252.391 507.075 252.361 507.086 252.334C507.097 252.306 507.121 252.283 507.153 252.268C507.501 252.129 507.869 252.023 508.251 251.954C508.635 251.883 509.032 251.856 509.427 251.875C510.227 251.909 511 252.105 511.666 252.443C511.715 252.47 511.747 252.509 511.758 252.554C511.768 252.598 511.755 252.644 511.722 252.682C511.688 252.719 511.637 252.745 511.579 252.754C511.52 252.763 511.46 252.755 511.41 252.73L511.404 252.727L511.389 252.715Z" fill="#0C0C0C"/>
<path d="M517.711 253.379C518.497 253.261 519.31 253.304 520.066 253.506C520.44 253.604 520.793 253.744 521.112 253.921C521.43 254.096 521.718 254.301 521.968 254.53C521.996 254.553 522.01 254.583 522.008 254.613C522.006 254.644 521.988 254.673 521.959 254.693C521.929 254.714 521.889 254.725 521.849 254.723C521.809 254.722 521.771 254.708 521.744 254.686L521.736 254.68C521.494 254.473 521.218 254.29 520.916 254.135C520.618 253.98 520.29 253.861 519.945 253.78C519.259 253.617 518.528 253.594 517.827 253.714L517.81 253.718C517.751 253.729 517.689 253.722 517.637 253.698C517.585 253.674 517.548 253.635 517.534 253.591C517.519 253.546 517.529 253.499 517.56 253.459C517.591 253.42 517.642 253.392 517.701 253.381L517.711 253.379Z" fill="#0C0C0C"/>
<path d="M482.693 323.868C480.188 323.038 478.313 322.149 474.036 319.7C470.949 317.939 468.081 315.968 465.466 313.811L487.43 282.048L488.385 280.668L508.196 288.584L491.011 313.437L490.932 313.546L491.081 313.988" fill="#EA394A"/>
<path d="M555.738 298.317C555.161 303.027 555.037 310.352 555.077 316.865C546.795 322.574 536.681 326.525 525.753 328.321C514.824 330.117 503.466 329.695 492.82 327.097C491.517 317.275 489.579 302.842 488.488 293.955C487.381 284.749 484.126 281.709 493.009 277.3C497.903 275.407 505.662 275.24 509.149 275.24C507.965 283.966 532.163 285.04 532.764 275.24C550.863 276.526 559.241 276.846 555.738 298.317Z" fill="#EA394A"/>
<path d="M510.244 262.05C512.244 262.823 514.526 263.067 516.73 262.745C516.806 262.733 516.885 262.739 516.957 262.761C517.029 262.783 517.092 262.82 517.137 262.868C517.183 262.916 517.21 262.973 517.214 263.032C517.219 263.091 517.201 263.149 517.163 263.201C516.508 264.081 514.948 265.585 512.275 264.972C510.549 264.576 509.897 263.229 509.653 262.392C509.636 262.334 509.641 262.274 509.668 262.218C509.695 262.162 509.742 262.113 509.804 262.077C509.866 262.041 509.941 262.02 510.019 262.015C510.096 262.01 510.175 262.022 510.244 262.05Z" fill="white"/>
<path d="M510.118 255.289C510.652 255.289 511.085 254.961 511.085 254.555C511.085 254.15 510.652 253.821 510.118 253.821C509.585 253.821 509.152 254.15 509.152 254.555C509.152 254.961 509.585 255.289 510.118 255.289Z" fill="#0C0C0C"/>
<path d="M519.407 256.525C519.94 256.525 520.373 256.196 520.373 255.79C520.373 255.385 519.94 255.056 519.407 255.056C518.873 255.056 518.44 255.385 518.44 255.79C518.44 256.196 518.873 256.525 519.407 256.525Z" fill="#0C0C0C"/>
<path d="M490.627 309.808H490.646C490.685 309.804 490.72 309.788 490.744 309.764C490.768 309.74 490.778 309.71 490.773 309.68L489.064 296.598C489.062 296.583 489.056 296.569 489.046 296.556C489.036 296.543 489.023 296.532 489.008 296.523C488.992 296.514 488.974 296.507 488.955 296.503C488.936 296.5 488.916 296.499 488.896 296.502C488.877 296.504 488.858 296.508 488.841 296.516C488.824 296.523 488.809 296.533 488.797 296.545C488.786 296.557 488.777 296.571 488.772 296.585C488.767 296.6 488.766 296.615 488.769 296.629L490.477 309.711C490.482 309.739 490.501 309.763 490.528 309.781C490.556 309.799 490.591 309.809 490.627 309.808Z" fill="#0C0C0C"/>
<path d="M488.394 299.845H470.953V316.101H488.394V299.845Z" fill="white"/>
<path d="M481.252 307.973C481.252 306.9 481.671 305.85 482.456 304.958C483.241 304.065 484.357 303.37 485.662 302.959C486.967 302.549 488.403 302.441 489.789 302.651C491.174 302.861 492.447 303.378 493.445 304.137C494.444 304.896 495.124 305.863 495.4 306.916C495.675 307.969 495.533 309.061 494.993 310.052C494.452 311.044 493.536 311.892 492.362 312.488C491.187 313.085 489.806 313.403 488.394 313.403C486.5 313.401 484.684 312.828 483.345 311.811C482.006 310.793 481.253 309.413 481.252 307.973ZM484.177 307.973C484.177 308.607 484.424 309.227 484.887 309.754C485.351 310.281 486.009 310.692 486.78 310.934C487.55 311.177 488.398 311.24 489.216 311.117C490.034 310.993 490.786 310.688 491.375 310.239C491.965 309.791 492.367 309.22 492.53 308.599C492.692 307.977 492.609 307.333 492.29 306.747C491.97 306.161 491.43 305.661 490.736 305.309C490.043 304.957 489.228 304.769 488.394 304.769C487.276 304.77 486.204 305.108 485.413 305.708C484.623 306.309 484.178 307.124 484.177 307.973Z" fill="white"/>
<path d="M488.255 309.985C488.313 309.71 488.498 309.459 488.775 309.277C489.052 309.095 489.405 308.993 489.772 308.989C489.762 308.978 489.754 308.965 489.75 308.952L489.231 308.866C488.869 308.812 488.543 308.664 488.308 308.448C488.073 308.232 487.943 307.96 487.941 307.68C487.944 307.504 487.999 307.331 488.101 307.173C488.203 307.015 488.35 306.876 488.531 306.767C488.712 306.657 488.923 306.58 489.149 306.54C489.374 306.5 489.608 306.498 489.835 306.535L491.06 306.736C491.06 306.733 491.06 306.73 491.06 306.726C491.063 306.718 491.066 306.711 491.071 306.704C490.751 306.59 490.492 306.397 490.336 306.157C490.179 305.917 490.135 305.643 490.209 305.381C490.343 304.693 491.43 304.466 492.227 304.597L495.4 305.028L494.329 304.489C493.991 304.311 493.755 304.042 493.667 303.737C493.58 303.432 493.648 303.113 493.859 302.844C493.974 302.708 494.124 302.592 494.3 302.502C494.476 302.412 494.674 302.35 494.883 302.32C495.091 302.29 495.306 302.293 495.513 302.328C495.72 302.363 495.916 302.43 496.088 302.524L508.88 313.649L506.04 312.67C505.158 313.655 503.91 314.418 502.454 314.861C500.998 315.303 499.402 315.405 497.869 315.153L490.932 314.004C490.57 313.95 490.244 313.802 490.008 313.586C489.773 313.37 489.643 313.098 489.641 312.818C489.646 312.565 489.758 312.319 489.959 312.118C490.16 311.916 490.441 311.769 490.76 311.697C490.75 311.679 490.747 311.66 490.75 311.64C490.754 311.622 490.764 311.605 490.778 311.591C490.793 311.576 490.812 311.565 490.834 311.557L489.554 311.347C489.15 311.288 488.792 311.114 488.551 310.861C488.31 310.608 488.204 310.295 488.255 309.985Z" fill="#E98862"/>
<path opacity="0.2" d="M493.377 307.128C493.41 307.123 493.44 307.109 493.461 307.088C493.482 307.068 493.494 307.043 493.493 307.017C493.492 306.991 493.48 306.966 493.458 306.946C493.436 306.927 493.405 306.913 493.371 306.909L491.229 306.633C491.209 306.63 491.189 306.63 491.17 306.633C491.15 306.636 491.132 306.642 491.116 306.65C491.099 306.659 491.085 306.67 491.075 306.682C491.064 306.695 491.057 306.709 491.053 306.724C491.05 306.739 491.051 306.754 491.055 306.769C491.06 306.783 491.068 306.797 491.08 306.809C491.092 306.821 491.107 306.831 491.124 306.839C491.141 306.846 491.16 306.851 491.179 306.853L493.322 307.129C493.34 307.131 493.359 307.131 493.377 307.128Z" fill="#0C0C0C"/>
<path opacity="0.2" d="M492.86 309.432C492.893 309.426 492.923 309.412 492.944 309.392C492.965 309.372 492.977 309.347 492.976 309.321C492.976 309.295 492.963 309.27 492.941 309.25C492.919 309.23 492.889 309.217 492.855 309.212L489.92 308.817C489.9 308.813 489.88 308.813 489.861 308.816C489.841 308.818 489.822 308.824 489.806 308.832C489.789 308.841 489.775 308.852 489.764 308.864C489.753 308.877 489.745 308.891 489.742 308.906C489.739 308.921 489.739 308.936 489.744 308.951C489.748 308.966 489.757 308.98 489.768 308.992C489.78 309.004 489.795 309.014 489.812 309.022C489.83 309.03 489.849 309.034 489.868 309.036L492.804 309.432C492.822 309.435 492.841 309.435 492.86 309.432Z" fill="#0C0C0C"/>
<path opacity="0.2" d="M492.321 311.929C492.354 311.924 492.384 311.909 492.405 311.889C492.427 311.868 492.438 311.843 492.437 311.817C492.436 311.79 492.423 311.765 492.4 311.746C492.377 311.726 492.346 311.713 492.312 311.709L490.92 311.547C490.883 311.545 490.845 311.553 490.816 311.571C490.786 311.588 490.766 311.614 490.761 311.642C490.755 311.67 490.764 311.699 490.785 311.722C490.807 311.746 490.839 311.762 490.876 311.768L492.268 311.93C492.286 311.932 492.303 311.932 492.321 311.929Z" fill="#0C0C0C"/>
<path d="M564.624 308.61C556.776 317.187 545.497 323.612 532.463 326.931L532.458 326.927C529.563 326.497 501.946 318.21 498.293 317.666L502.29 303.494C512.554 305.046 531.273 311.029 541.596 312.587L534.313 287.495C534.049 286.386 534.078 285.249 534.397 284.149C534.715 283.049 535.318 282.008 536.171 281.087C537.023 280.165 538.107 279.381 539.361 278.781C540.615 278.18 542.013 277.775 543.475 277.588C544.936 277.401 546.432 277.436 547.876 277.692C549.319 277.948 550.681 278.419 551.883 279.078C553.085 279.737 554.103 280.571 554.878 281.531C555.653 282.491 556.169 283.559 556.397 284.672L564.624 308.61Z" fill="#EA394A"/>
<path d="M549.419 314.435C549.457 314.434 549.492 314.423 549.519 314.404C549.546 314.384 549.563 314.358 549.566 314.33C549.569 314.301 549.557 314.273 549.534 314.251C549.512 314.229 549.479 314.214 549.442 314.209L541.681 312.208C541.661 312.206 541.642 312.206 541.622 312.21C541.603 312.213 541.585 312.22 541.569 312.229C541.554 312.237 541.54 312.249 541.53 312.261C541.52 312.274 541.514 312.289 541.511 312.303C541.505 312.333 541.515 312.363 541.539 312.388C541.562 312.412 541.598 312.428 541.637 312.432L549.398 314.433C549.405 314.434 549.412 314.435 549.419 314.435Z" fill="#0C0C0C"/>
<path d="M541.8 312.304C541.804 312.339 541.79 312.375 541.76 312.402C541.743 312.415 541.723 312.424 541.7 312.429C541.678 312.434 541.654 312.435 541.631 312.433L502.539 303.664L498.621 317.612L532.284 326.972C532.18 326.999 532.07 327.025 531.966 327.051C531.891 327.07 531.816 327.089 531.737 327.104L498.402 317.803C498.365 317.795 498.332 317.777 498.312 317.751C498.292 317.726 498.285 317.696 498.293 317.667L502.29 303.495C502.295 303.481 502.304 303.467 502.316 303.455C502.328 303.444 502.343 303.434 502.36 303.427C502.376 303.418 502.395 303.412 502.415 303.41C502.435 303.407 502.455 303.408 502.474 303.412L541.472 312.192L537.057 298.358C537.052 298.329 537.062 298.299 537.085 298.275C537.108 298.251 537.143 298.235 537.182 298.23C537.201 298.227 537.221 298.227 537.24 298.23C537.259 298.233 537.277 298.239 537.294 298.248C537.31 298.256 537.324 298.267 537.334 298.279C537.345 298.292 537.352 298.306 537.356 298.321L541.8 312.304Z" fill="#0C0C0C"/>
<path d="M50.3227 279.227C50.2864 279.227 50.2503 279.222 50.2168 279.211C50.1837 279.2 50.1537 279.185 50.1284 279.166C50.1032 279.146 50.0832 279.123 50.0697 279.098C50.0562 279.073 50.0493 279.046 50.0495 279.018C50.0497 278.991 50.057 278.964 50.0709 278.939L60.7738 259.606C60.802 259.555 60.8556 259.515 60.9227 259.494C60.9898 259.473 61.0651 259.474 61.1319 259.495C61.1987 259.517 61.2515 259.557 61.2788 259.608C61.3061 259.659 61.3056 259.716 61.2774 259.767L50.5745 279.1C50.5538 279.137 50.5188 279.17 50.474 279.192C50.4292 279.215 50.3766 279.227 50.3227 279.227Z" fill="#0C0C0C"/>
<path d="M113.302 279.447H113.29C113.255 279.448 113.219 279.444 113.185 279.435C113.151 279.425 113.12 279.411 113.094 279.393C113.067 279.374 113.046 279.352 113.031 279.327C113.016 279.303 113.007 279.276 113.005 279.249L111.812 259.475C111.811 259.421 111.838 259.368 111.886 259.328C111.934 259.287 112.001 259.262 112.072 259.258C112.108 259.257 112.144 259.261 112.178 259.27C112.212 259.279 112.243 259.294 112.269 259.312C112.296 259.33 112.317 259.352 112.332 259.377C112.348 259.402 112.356 259.429 112.358 259.456L113.551 279.23C113.554 279.283 113.531 279.336 113.484 279.376C113.438 279.417 113.373 279.442 113.302 279.447Z" fill="#0C0C0C"/>
<line x1="18.2756" y1="338.021" x2="67.0139" y2="338.021" stroke="#367CFF" stroke-opacity="0.4"/>
<line x1="368.503" y1="338.021" x2="465.979" y2="338.021" stroke="#367CFF" stroke-opacity="0.4"/>
<line x1="480.693" y1="338.021" x2="517.247" y2="338.021" stroke="#367CFF" stroke-opacity="0.4"/>
<line x1="541" y1="338.5" x2="608.015" y2="338.5" stroke="#367CFF" stroke-opacity="0.4"/>
<line x1="80.6365" y1="338.021" x2="353.614" y2="338.021" stroke="#367CFF" stroke-opacity="0.4"/>
<g filter="url(#filter0_d_58_361)">
<path d="M274.197 20.3105C277.387 20.4017 280.031 20.4701 282.127 20.5156C284.269 20.5156 286.001 20.5156 287.322 20.5156H290.945H311.316C311.408 21.4271 311.476 22.3158 311.521 23.1816C311.613 24.002 311.658 24.7311 311.658 25.3691C311.658 26.1439 311.635 26.8503 311.59 27.4883C311.544 28.1263 311.476 28.8099 311.385 29.5391C311.294 30.1771 311.202 30.8607 311.111 31.5898C311.02 32.319 310.861 33.071 310.633 33.8457C309.995 31.3848 309.129 29.5163 308.035 28.2402C306.987 26.9642 305.916 26.0299 304.822 25.4375C303.546 24.7539 302.202 24.3893 300.789 24.3438C298.921 24.4349 297.462 24.5944 296.414 24.8223C295.366 25.0501 294.546 25.3691 293.953 25.7793C293.361 26.1895 292.905 26.668 292.586 27.2148C292.312 27.7161 292.016 28.2858 291.697 28.9238C291.424 29.4707 291.173 30.3138 290.945 31.4531C290.717 32.4102 290.49 33.709 290.262 35.3496C290.079 36.9902 289.874 39.1094 289.646 41.707C290.877 41.3424 291.857 41.0007 292.586 40.6816C293.361 40.3626 293.976 40.0892 294.432 39.8613C294.933 39.5879 295.298 39.3372 295.525 39.1094C295.708 38.8359 295.981 38.3346 296.346 37.6055C296.619 36.9674 296.984 36.1016 297.439 35.0078C297.941 33.9141 298.533 32.4102 299.217 30.4961C299.308 32.5924 299.354 34.347 299.354 35.7598C299.354 37.127 299.376 38.2435 299.422 39.1094C299.422 40.112 299.445 40.9095 299.49 41.502V44.0996C299.49 45.0566 299.49 46.3555 299.49 47.9961C299.536 49.5911 299.604 51.6191 299.695 54.0801C299.148 52.3939 298.647 51.0723 298.191 50.1152C297.781 49.1126 297.417 48.3607 297.098 47.8594C296.733 47.2669 296.414 46.8568 296.141 46.6289C295.822 46.5378 295.389 46.4466 294.842 46.3555C294.34 46.3099 293.702 46.2871 292.928 46.2871C292.199 46.2871 291.264 46.401 290.125 46.6289C289.988 49.1354 289.965 51.1634 290.057 52.7129C290.193 54.2168 290.376 55.3789 290.604 56.1992C290.831 57.1562 291.105 57.8398 291.424 58.25C291.834 58.6602 292.654 59.002 293.885 59.2754C295.115 59.5033 296.505 59.5944 298.055 59.5488C299.65 59.4577 301.268 59.1842 302.908 58.7285C304.549 58.2728 306.007 57.5208 307.283 56.4727C308.24 55.6068 309.266 54.513 310.359 53.1914C311.271 52.0521 312.273 50.6165 313.367 48.8848C314.507 47.153 315.623 45.0566 316.717 42.5957C316.535 44.6465 316.398 46.3555 316.307 47.7227C316.261 49.0443 316.193 50.1152 316.102 50.9355C316.01 51.8926 315.942 52.6217 315.896 53.123C315.896 53.6699 315.828 54.4447 315.691 55.4473C315.6 56.3132 315.441 57.498 315.213 59.002C315.031 60.4603 314.78 62.3288 314.461 64.6074C312.319 64.653 310.291 64.6986 308.377 64.7441C306.463 64.7441 304.777 64.7669 303.318 64.8125C301.587 64.8581 299.992 64.9036 298.533 64.9492C297.029 64.9492 295.366 65.0176 293.543 65.1543C291.948 65.2454 290.057 65.3822 287.869 65.5645C285.727 65.7467 283.357 65.9974 280.76 66.3164C280.988 63.2174 281.147 60.3008 281.238 57.5664C281.375 54.7865 281.466 52.3483 281.512 50.252C281.557 47.791 281.557 45.5124 281.512 43.416C281.74 38.1751 281.648 33.9368 281.238 30.7012C280.828 27.4655 280.35 25.3919 279.803 24.4805C279.529 24.1615 279.142 23.7741 278.641 23.3184C278.23 22.9538 277.661 22.5208 276.932 22.0195C276.202 21.5182 275.291 20.9486 274.197 20.3105ZM315.35 29.334C316.124 29.4707 316.922 29.5846 317.742 29.6758C318.517 29.7214 319.223 29.7669 319.861 29.8125C320.59 29.8581 321.297 29.8809 321.98 29.8809C322.664 29.8809 323.439 29.8581 324.305 29.8125C325.034 29.7669 325.9 29.6986 326.902 29.6074C327.951 29.5163 329.09 29.3796 330.32 29.1973C329.591 29.6074 329.021 30.0404 328.611 30.4961C328.201 30.9518 327.882 31.362 327.654 31.7266C327.381 32.1823 327.199 32.5924 327.107 32.957C327.016 33.3216 327.039 34.0736 327.176 35.2129C327.312 36.3522 327.495 37.6738 327.723 39.1777C327.996 40.6816 328.292 42.2539 328.611 43.8945C328.93 45.5352 329.249 47.0391 329.568 48.4062C329.933 49.7734 330.252 50.9128 330.525 51.8242C330.844 52.7357 331.095 53.1686 331.277 53.123C331.46 53.123 331.733 52.6673 332.098 51.7559C332.508 50.8444 332.964 49.7279 333.465 48.4062C333.966 47.0391 334.49 45.5579 335.037 43.9629C335.584 42.3223 336.062 40.7956 336.473 39.3828C336.883 37.9701 337.202 36.7852 337.43 35.8281C337.703 34.8255 337.817 34.2331 337.771 34.0508C337.635 33.8685 337.475 33.6178 337.293 33.2988C336.974 32.7975 336.268 31.9316 335.174 30.7012C336.495 30.7923 337.635 30.8835 338.592 30.9746C339.549 31.0202 340.324 31.0885 340.916 31.1797C341.6 31.2708 342.146 31.3392 342.557 31.3848C342.967 31.4303 343.559 31.4303 344.334 31.3848C344.972 31.3848 345.815 31.362 346.863 31.3164C347.957 31.2253 349.301 31.0885 350.896 30.9062C349.712 31.5898 348.732 32.2051 347.957 32.752C347.228 33.2533 346.658 33.6862 346.248 34.0508C345.747 34.5065 345.382 34.8939 345.154 35.2129C344.835 35.8053 344.266 37.2181 343.445 39.4512C343.081 40.4082 342.625 41.5931 342.078 43.0059C341.577 44.4186 340.962 46.1276 340.232 48.1328C339.549 50.0924 338.729 52.3939 337.771 55.0371C336.814 57.6803 335.743 60.7109 334.559 64.1289L327.928 64.8125C327.062 61.9414 326.355 59.5488 325.809 57.6348C325.307 55.6751 324.897 54.1029 324.578 52.918C324.214 51.5508 323.94 50.4798 323.758 49.7051C323.53 48.8392 323.257 47.5859 322.938 45.9453C322.618 44.2591 322.299 42.5501 321.98 40.8184C321.661 39.0866 321.342 37.5371 321.023 36.1699C320.704 34.7572 320.454 33.8913 320.271 33.5723C320.089 33.3444 319.77 33.0254 319.314 32.6152C318.95 32.2507 318.449 31.8177 317.811 31.3164C317.173 30.7695 316.352 30.1087 315.35 29.334ZM365.184 55.9941C366.46 55.9941 367.645 55.8574 368.738 55.584C369.65 55.3561 370.516 54.9915 371.336 54.4902C372.202 53.9434 372.771 53.1458 373.045 52.0977C373.956 52.2799 374.731 52.4395 375.369 52.5762C376.007 52.6673 376.554 52.7585 377.01 52.8496C377.511 52.9863 377.944 53.0775 378.309 53.123C378.673 53.2142 379.106 53.3053 379.607 53.3965C380.063 53.4876 380.61 53.6016 381.248 53.7383C381.932 53.8294 382.729 53.9661 383.641 54.1484C382.957 54.0573 382.251 54.1257 381.521 54.3535C380.838 54.5814 380.177 54.832 379.539 55.1055C378.81 55.4245 378.126 55.8118 377.488 56.2676C377.078 56.541 376.6 56.9512 376.053 57.498C375.551 58.0449 374.822 58.569 373.865 59.0703C372.908 59.5716 371.632 60.0046 370.037 60.3691C368.488 60.6882 366.482 60.8021 364.021 60.7109C361.059 60.6198 358.576 60.0957 356.57 59.1387C354.565 58.1361 352.947 56.9284 351.717 55.5156C350.486 54.0573 349.598 52.485 349.051 50.7988C348.504 49.1126 348.208 47.5404 348.162 46.082C348.117 44.6237 348.549 43.097 349.461 41.502C350.372 39.9069 351.648 38.4486 353.289 37.127C354.975 35.8053 357.003 34.7344 359.373 33.9141C361.743 33.0482 364.34 32.6152 367.166 32.6152C368.807 32.6152 370.311 32.8203 371.678 33.2305C373.09 33.5951 374.367 34.0964 375.506 34.7344C376.691 35.3724 377.716 36.1016 378.582 36.9219C379.448 37.6966 380.177 38.4941 380.77 39.3145C381.362 40.1803 381.863 41.0918 382.273 42.0488C382.638 42.8691 382.934 43.8034 383.162 44.8516C383.39 45.8997 383.458 46.9707 383.367 48.0645C379.904 48.1556 377.101 48.224 374.959 48.2695C372.863 48.3151 371.222 48.3379 370.037 48.3379H366.961H364.637C363.816 48.3379 362.745 48.3607 361.424 48.4062C360.102 48.4518 358.484 48.5202 356.57 48.6113C356.798 50.4342 357.368 51.847 358.279 52.8496C359.236 53.8066 360.239 54.5358 361.287 55.0371C362.472 55.584 363.771 55.903 365.184 55.9941ZM359.031 43.6895C360.49 43.7806 361.697 43.849 362.654 43.8945C363.657 43.9401 364.477 43.9857 365.115 44.0312C365.799 44.0768 366.346 44.0996 366.756 44.0996H368.465C369.604 44.0996 371.723 44.0312 374.822 43.8945C374.686 41.8893 374.253 40.3626 373.523 39.3145C372.84 38.2663 372.111 37.4915 371.336 36.9902C370.424 36.4434 369.422 36.1243 368.328 36.0332C365.366 36.0788 363.156 36.694 361.697 37.8789C360.285 39.0638 359.396 41.0007 359.031 43.6895ZM388.221 59.4805C388.54 57.9766 388.768 56.6549 388.904 55.5156C389.087 54.3307 389.223 53.3509 389.314 52.5762C389.406 51.6647 389.451 50.89 389.451 50.252C389.406 49.4772 389.36 48.5658 389.314 47.5176C389.314 46.4238 389.269 45.3529 389.178 44.3047C389.132 43.2109 389.064 42.2539 388.973 41.4336C388.882 40.5677 388.768 39.9525 388.631 39.5879C388.449 39.2233 388.198 38.8359 387.879 38.4258C387.241 37.651 386.307 36.8991 385.076 36.1699C386.124 35.9421 387.013 35.7598 387.742 35.623C388.517 35.4408 389.155 35.2812 389.656 35.1445C390.203 34.9622 390.682 34.8027 391.092 34.666C391.456 34.5293 391.889 34.3926 392.391 34.2559C392.801 34.1647 393.302 34.0508 393.895 33.9141C394.487 33.7773 395.171 33.6178 395.945 33.4355L395.74 39.6562C397.199 37.9245 398.68 36.6257 400.184 35.7598C401.688 34.8939 403.1 34.2786 404.422 33.9141C405.926 33.4583 407.407 33.2305 408.865 33.2305C410.688 33.3216 412.374 33.6178 413.924 34.1191C415.519 34.6204 416.886 35.2129 418.025 35.8965C419.21 36.5345 420.167 37.2181 420.896 37.9473C421.626 38.6764 422.059 39.3145 422.195 39.8613C422.742 41.6387 422.879 43.2793 422.605 44.7832C422.332 46.2415 421.967 47.6771 421.512 49.0898C421.102 50.457 420.737 51.8242 420.418 53.1914C420.145 54.5586 420.258 56.0397 420.76 57.6348C420.942 58.0449 421.124 58.4551 421.307 58.8652C421.489 59.2298 421.717 59.5944 421.99 59.959C422.264 60.3236 422.583 60.6198 422.947 60.8477C422.446 60.8021 421.945 60.7793 421.443 60.7793C420.942 60.7337 420.486 60.6882 420.076 60.6426C419.575 60.597 419.119 60.5514 418.709 60.5059C418.253 60.4603 417.638 60.4375 416.863 60.4375C415.542 60.4375 413.491 60.5059 410.711 60.6426C411.121 59.6855 411.44 58.888 411.668 58.25C411.941 57.5664 412.169 57.0195 412.352 56.6094C412.534 56.1081 412.671 55.7207 412.762 55.4473C413.309 54.1257 413.628 52.6217 413.719 50.9355C413.855 49.2493 413.742 47.5404 413.377 45.8086C413.24 45.2161 413.012 44.5098 412.693 43.6895C412.374 42.8691 411.941 42.0716 411.395 41.2969C410.893 40.5221 410.278 39.8613 409.549 39.3145C408.865 38.7676 408.068 38.4486 407.156 38.3574C406.245 38.2663 405.219 38.4941 404.08 39.041C402.986 39.5879 401.801 40.5905 400.525 42.0488C399.568 43.2793 398.816 44.7832 398.27 46.5605C397.768 48.0645 397.426 49.9557 397.244 52.2344C397.062 54.4674 397.335 57.0879 398.064 60.0957C397.426 60.0046 396.834 59.959 396.287 59.959C395.74 59.9134 395.285 59.8678 394.92 59.8223C394.464 59.7767 394.054 59.7311 393.689 59.6855C393.279 59.6855 392.824 59.6628 392.322 59.6172C391.867 59.6172 391.297 59.6172 390.613 59.6172C389.93 59.5716 389.132 59.526 388.221 59.4805ZM426.297 23.9336C427.664 24.0703 428.803 24.1842 429.715 24.2754C430.672 24.3665 431.447 24.4349 432.039 24.4805C432.723 24.526 433.27 24.5488 433.68 24.5488C434.09 24.5944 434.637 24.5944 435.32 24.5488C435.913 24.5033 436.688 24.4577 437.645 24.4121C438.602 24.321 439.809 24.1842 441.268 24.002C440.949 24.4577 440.698 24.8678 440.516 25.2324C440.333 25.5514 440.174 25.8477 440.037 26.1211L439.627 26.9414C439.536 27.2148 439.445 27.4883 439.354 27.7617C439.262 27.9896 439.171 28.263 439.08 28.582C439.035 28.901 438.989 29.2428 438.943 29.6074H449.471L448.514 35.1445L438.875 34.5977C438.647 36.9219 438.488 38.722 438.396 39.998C438.305 41.2741 438.214 42.2083 438.123 42.8008L437.986 44.0312C437.85 45.763 437.713 47.6543 437.576 49.7051C437.439 51.7103 437.394 53.5788 437.439 55.3105C437.485 57.0423 437.645 58.5007 437.918 59.6855C438.191 60.8249 438.67 61.3945 439.354 61.3945C440.037 61.3945 440.675 61.2122 441.268 60.8477C441.86 60.4831 442.361 60.0501 442.771 59.5488C443.227 59.0475 443.569 58.5462 443.797 58.0449C444.025 57.498 444.139 57.0879 444.139 56.8145C444.139 56.541 444.07 56.222 443.934 55.8574C443.706 55.1738 443.296 54.3079 442.703 53.2598C444.025 53.5788 445.187 53.8978 446.189 54.2168C446.691 54.3991 447.146 54.5814 447.557 54.7637C448.012 54.946 448.536 55.151 449.129 55.3789C449.63 55.6068 450.268 55.8802 451.043 56.1992C451.818 56.5182 452.729 56.9056 453.777 57.3613C452.775 57.5436 452.046 57.8398 451.59 58.25C451.316 58.4323 451.111 58.6374 450.975 58.8652C450.656 59.3665 450.291 60.0501 449.881 60.916C449.471 61.7363 448.855 62.5566 448.035 63.377C447.215 64.1973 446.098 64.9264 444.686 65.5645C443.318 66.2025 441.473 66.5671 439.148 66.6582C436.733 66.7493 434.887 66.3392 433.611 65.4277C432.381 64.5163 431.469 63.4681 430.877 62.2832C430.33 61.0527 430.011 59.8451 429.92 58.6602C429.829 57.4753 429.76 56.6777 429.715 56.2676C429.669 55.8574 429.669 54.832 429.715 53.1914C429.76 51.5508 429.829 49.7507 429.92 47.791C430.011 45.7858 430.102 43.8717 430.193 42.0488C430.285 40.1803 430.33 38.8132 430.33 37.9473C430.33 37.4915 430.353 37.013 430.398 36.5117C430.398 36.1016 430.398 35.6686 430.398 35.2129C430.444 34.7116 430.467 34.2331 430.467 33.7773L420.555 33.709L420.145 29.8125L430.125 30.0859C430.034 29.5846 429.92 29.1289 429.783 28.7188C429.692 28.263 429.601 27.8984 429.51 27.625C429.373 27.306 429.236 27.0326 429.1 26.8047C428.917 26.5768 428.712 26.3262 428.484 26.0527C428.257 25.8249 427.96 25.5286 427.596 25.1641C427.231 24.7995 426.798 24.3893 426.297 23.9336ZM452.547 68.9141C453.003 68.2305 453.367 67.5924 453.641 67C453.914 66.4076 454.142 65.9062 454.324 65.4961C454.507 64.9948 454.643 64.5391 454.734 64.1289C454.78 63.8555 454.803 63.0579 454.803 61.7363C454.803 60.4147 454.757 58.7513 454.666 56.7461C454.62 54.7409 454.552 52.485 454.461 49.9785C454.415 47.472 454.324 44.9199 454.188 42.3223C454.096 39.7246 453.982 37.1953 453.846 34.7344C453.755 32.2734 453.663 30.0632 453.572 28.1035C453.481 26.0983 453.39 24.4577 453.299 23.1816C453.208 21.9056 453.139 21.1764 453.094 20.9941C453.003 20.7207 452.843 20.4473 452.615 20.1738C452.16 19.627 451.385 19.1029 450.291 18.6016C452.615 18.0091 454.393 17.5306 455.623 17.166C456.352 16.9837 456.99 16.8014 457.537 16.6191C458.038 16.4368 458.54 16.2546 459.041 16.0723C459.451 15.89 459.907 15.6849 460.408 15.457C460.91 15.1836 461.365 14.8874 461.775 14.5684C461.548 15.89 461.365 17.166 461.229 18.3965C461.092 19.627 460.978 20.7663 460.887 21.8145C460.796 22.9993 460.75 24.1387 460.75 25.2324C460.522 27.4655 460.385 29.9036 460.34 32.5469C460.34 35.1445 460.363 37.7878 460.408 40.4766C460.454 43.1654 460.545 45.7858 460.682 48.3379C460.818 50.89 460.955 53.2142 461.092 55.3105C461.274 57.3613 461.434 59.1159 461.57 60.5742C461.753 61.987 461.889 62.8984 461.98 63.3086C462.163 63.9922 462.345 64.653 462.527 65.291C462.71 65.8379 462.915 66.4076 463.143 67C463.37 67.638 463.644 68.1393 463.963 68.5039H457.332C456.74 68.5039 456.17 68.5267 455.623 68.5723C455.122 68.6178 454.598 68.6634 454.051 68.709C453.504 68.7546 453.003 68.8229 452.547 68.9141ZM462.938 32.0684C463.849 32.2051 464.669 32.319 465.398 32.4102C466.082 32.4557 466.697 32.5013 467.244 32.5469C467.837 32.5924 468.406 32.6152 468.953 32.6152C469.454 32.6152 470.092 32.5924 470.867 32.5469C471.505 32.5013 472.326 32.4557 473.328 32.4102C474.376 32.319 475.607 32.2051 477.02 32.0684C476.928 32.2507 476.746 32.8203 476.473 33.7773C476.199 34.6888 475.926 35.8281 475.652 37.1953C475.379 38.5169 475.128 39.998 474.9 41.6387C474.718 43.2337 474.627 44.8288 474.627 46.4238C474.673 47.9733 474.878 49.4544 475.242 50.8672C475.607 52.2344 476.199 53.3509 477.02 54.2168C478.751 55.9941 480.278 57.0651 481.6 57.4297C482.967 57.7943 484.152 57.7487 485.154 57.293C486.157 56.8372 486.977 56.1536 487.615 55.2422C488.253 54.3307 488.709 53.4876 488.982 52.7129C489.666 50.6165 490.076 48.4062 490.213 46.082C490.304 44.0768 490.145 41.8438 489.734 39.3828C489.324 36.9219 488.344 34.4154 486.795 31.8633C487.98 31.9544 489.005 32.0228 489.871 32.0684C490.737 32.1139 491.489 32.1595 492.127 32.2051C492.856 32.2507 493.494 32.2962 494.041 32.3418C494.542 32.3874 495.135 32.3874 495.818 32.3418C496.411 32.3418 497.117 32.319 497.938 32.2734C498.803 32.1823 499.76 32.0911 500.809 32C500.991 36.4661 501.15 40.4538 501.287 43.9629C501.424 47.4264 501.515 50.5026 501.561 53.1914C501.652 55.8346 501.697 58.1361 501.697 60.0957C501.697 62.0098 501.697 63.6276 501.697 64.9492C501.652 68.0938 501.515 70.1673 501.287 71.1699C500.923 72.5827 500.262 73.9954 499.305 75.4082C498.393 76.821 497.231 78.0742 495.818 79.168C494.406 80.3073 492.765 81.1732 490.896 81.7656C489.074 82.4036 487.068 82.6315 484.881 82.4492C482.739 82.2669 481.03 81.9707 479.754 81.5605C478.523 81.196 477.544 80.763 476.814 80.2617C476.131 79.7604 475.63 79.2363 475.311 78.6895C475.037 78.1426 474.832 77.5729 474.695 76.9805C474.559 76.4336 474.422 75.9095 474.285 75.4082C474.148 74.9069 473.875 74.474 473.465 74.1094C472.964 73.6992 472.439 73.2891 471.893 72.8789C471.391 72.5143 470.844 72.1497 470.252 71.7852C469.705 71.4206 469.158 71.1243 468.611 70.8965L483.172 70.0762C482.762 70.623 482.465 71.1243 482.283 71.5801C482.101 72.0358 481.987 72.4232 481.941 72.7422C481.896 73.1523 481.919 73.4941 482.01 73.7676C482.192 74.3145 482.511 74.9069 482.967 75.5449C483.468 76.2285 484.106 76.7526 484.881 77.1172C485.656 77.5273 486.567 77.6641 487.615 77.5273C488.709 77.3906 489.939 76.821 491.307 75.8184C492.446 74.9525 493.403 73.5625 494.178 71.6484C494.816 70.0078 495.317 67.7064 495.682 64.7441C496.046 61.7819 495.978 57.8854 495.477 53.0547C494.656 55.8802 493.54 58.0449 492.127 59.5488C490.714 61.0527 489.301 62.1465 487.889 62.8301C486.248 63.6504 484.539 64.0833 482.762 64.1289C480.392 64.0378 478.364 63.7415 476.678 63.2402C474.992 62.6934 473.602 61.9642 472.508 61.0527C471.414 60.1413 470.548 59.0703 469.91 57.8398C469.318 56.5638 468.885 55.151 468.611 53.6016C468.338 52.0521 468.201 50.5026 468.201 48.9531C468.201 47.3581 468.201 45.877 468.201 44.5098C468.247 43.1426 468.27 41.9121 468.27 40.8184C468.27 39.679 468.156 38.7676 467.928 38.084C467.654 37.4004 467.29 36.7168 466.834 36.0332C466.469 35.4408 465.968 34.8027 465.33 34.1191C464.646 33.39 463.849 32.7064 462.938 32.0684Z" fill="#F65858"/>
</g>
<defs>
<filter id="filter0_d_58_361" x="270.197" y="14.5684" width="235.5" height="76.1543" filterUnits="userSpaceOnUse" color-interpolation-filters="sRGB">
<feFlood flood-opacity="0" result="BackgroundImageFix"/>
<feColorMatrix in="SourceAlpha" type="matrix" values="0 0 0 0 0 0 0 0 0 0 0 0 0 0 0 0 0 0 127 0" result="hardAlpha"/>
<feOffset dy="4"/>
<feGaussianBlur stdDeviation="2"/>
<feComposite in2="hardAlpha" operator="out"/>
<feColorMatrix type="matrix" values="0 0 0 0 0 0 0 0 0 0 0 0 0 0 0 0 0 0 0.25 0"/>
<feBlend mode="normal" in2="BackgroundImageFix" result="effect1_dropShadow_58_361"/>
<feBlend mode="normal" in="SourceGraphic" in2="effect1_dropShadow_58_361" result="shape"/>
</filter>
</defs>
</svg>
