<svg width="23" height="21" viewBox="0 0 23 21" fill="none" xmlns="http://www.w3.org/2000/svg">
<path d="M22.3781 19.275L16.1906 14.25C18.7406 10.7625 18.4781 5.775 15.2906 2.625C13.6031 0.9375 11.3531 0 8.95312 0C6.55312 0 4.30313 0.9375 2.61563 2.625C-0.871875 6.1125 -0.871875 11.8125 2.61563 15.3C4.30313 16.9875 6.55312 17.925 8.95312 17.925C11.2406 17.925 13.3781 17.0625 15.0656 15.525L21.3281 20.5875C21.4781 20.7 21.6656 20.775 21.8531 20.775C22.1156 20.775 22.3406 20.6625 22.4906 20.475C22.7906 20.1 22.7531 19.575 22.3781 19.275ZM8.95312 16.2375C7.00313 16.2375 5.20313 15.4875 3.81563 14.1C0.965625 11.25 0.965625 6.6375 3.81563 3.825C5.20313 2.4375 7.00313 1.6875 8.95312 1.6875C10.9031 1.6875 12.7031 2.4375 14.0906 3.825C16.9406 6.675 16.9406 11.2875 14.0906 14.1C12.7406 15.4875 10.9031 16.2375 8.95312 16.2375Z" fill="black"/>
</svg>
