<svg width="271" height="171" viewBox="0 0 271 171" fill="none" xmlns="http://www.w3.org/2000/svg">
<g clip-path="url(#clip0_60_6)">
<path d="M216.096 11.8471C243.548 21.4588 269.24 35.6529 270.824 51.747C272.408 67.8412 249.883 85.8353 234.749 102.265C219.616 118.694 211.873 133.671 195.683 146.971C179.669 160.271 154.857 172.006 132.684 169.771C110.512 167.647 90.9786 151.441 69.5097 139.259C48.0409 126.965 24.8123 118.694 11.9662 105.394C-0.879867 92.2059 -3.34351 73.9882 9.15064 61.6941C21.4688 49.4 48.9208 43.0294 71.6214 32.4118C94.1461 21.7941 112.271 6.92941 135.852 2.01176C159.432 -2.90589 188.468 2.23529 216.096 11.8471Z" fill="#BAE6FF" fill-opacity="0.7"/>
</g>
<defs>
<clipPath id="clip0_60_6">
<rect width="271" height="171" fill="none"/>
</clipPath>
</defs>
</svg>
