<svg width="296" height="239" viewBox="0 0 296 239" fill="none" xmlns="http://www.w3.org/2000/svg">
<g clip-path="url(#clip0_60_2)">
<path d="M232.589 2.11189C260.688 8.41859 283.318 30.2613 291.804 54.719C300.101 79.1767 294.444 106.096 288.975 132.553C283.318 159.01 277.849 185.006 258.425 198.389C239.001 211.617 205.433 212.233 174.694 219.155C143.766 226.077 115.667 239.152 87.7569 238.383C60.0351 237.613 32.502 223 19.4898 202.542C6.28895 182.237 7.79762 156.242 4.96887 131.476C2.32871 106.711 -4.64887 83.3299 4.78029 65.6404C14.0209 47.9509 39.6682 36.1066 64.3725 28.5693C89.0769 20.8782 112.838 17.6479 141.692 11.3412C170.545 5.03451 204.301 -4.19481 232.589 2.11189Z" fill="#FFD6E8" fill-opacity="0.4"/>
</g>
<defs>
<clipPath id="clip0_60_2">
<rect width="296" height="239" fill="none"/>
</clipPath>
</defs>
</svg>
